<svg width="1920" height="185" viewBox="0 0 1920 185" fill="none" xmlns="http://www.w3.org/2000/svg">
<path d="M508 183C508 175.171 508.212 179.484 508.475 179.484C509.225 179.484 509.527 177.577 508.943 176.531C508.562 175.849 508.619 175.454 509.147 175.128C509.676 174.801 509.933 173.038 510.061 168.858C510.159 165.659 510.462 162.812 510.733 162.53C511.439 161.797 511.344 156.637 510.611 155.902C510.149 155.439 510.869 154.339 513.504 151.486L517.013 147.688L517.049 143.871C517.069 141.772 517.364 139.209 517.704 138.175C518.282 136.418 518.374 136.359 519.107 137.27C519.8 138.132 519.865 137.4 519.67 130.92C519.459 123.908 519.5 123.546 520.645 122.441C521.592 121.528 521.847 120.661 521.869 118.283C521.899 114.929 522.924 112.868 524.944 112.098C527.281 111.208 529.569 104.557 528.34 102.227C528.004 101.588 528.018 101.015 528.382 100.575C528.689 100.205 528.801 99.0452 528.632 97.9983C528.375 96.4111 528.545 95.9206 529.653 95.0467C530.874 94.0839 530.987 93.6172 531.046 89.3025C531.105 84.9564 531.03 84.6063 530.042 84.6063C529.455 84.6063 528.975 84.3638 528.975 84.0673C528.975 83.7708 529.459 83.5282 530.051 83.5282C530.768 83.5282 531.126 83.1688 531.126 82.45C531.126 80.9729 532.086 81.0832 532.299 82.5848C532.428 83.4961 532.772 83.7558 533.681 83.629C534.346 83.5363 534.891 83.7183 534.891 84.0333C534.891 84.3485 534.287 84.6063 533.549 84.6063C532.213 84.6063 532.207 84.6279 532.344 89.1508C532.463 93.0775 532.654 93.8794 533.752 95.0505C534.771 96.1381 534.955 96.7653 534.681 98.2264C534.494 99.2278 534.515 100.222 534.729 100.436C534.942 100.65 535.126 102.495 535.138 104.535C535.155 107.412 535.408 108.578 536.263 109.726C538.193 112.318 539.088 112.566 540.529 110.905C542.158 109.028 543.273 103.993 542.416 102.387C541.982 101.574 541.973 101.05 542.385 100.552C542.717 100.151 542.811 99.0964 542.606 98.07C542.306 96.5667 542.469 96.1082 543.639 95.1627C544.767 94.2513 545.045 93.5333 545.117 91.3448C545.312 85.4032 545.184 84.6063 544.034 84.6063C543.443 84.6063 542.959 84.3532 542.959 84.0436C542.959 83.7341 543.382 83.5522 543.9 83.6393C544.528 83.7451 544.898 83.3946 545.013 82.5848C545.107 81.9177 545.393 81.3719 545.648 81.3719C545.902 81.3719 546.189 81.9177 546.284 82.5848C546.413 83.4802 546.774 83.7641 547.666 83.6693C548.331 83.5987 548.875 83.7806 548.875 84.0736C548.875 84.3666 548.269 84.6063 547.528 84.6063C546.183 84.6063 546.182 84.6063 546.376 89.1546C546.546 93.1113 546.753 93.92 547.972 95.3719C549.169 96.7983 549.286 97.232 548.776 98.3548C548.33 99.3363 548.341 99.8641 548.819 100.442C549.189 100.889 549.311 101.807 549.107 102.621C548.913 103.394 548.924 105.176 549.131 106.581C549.454 108.771 549.928 109.525 552.461 111.88C555.334 114.549 555.424 114.72 555.711 118.079C555.885 120.12 556.362 121.942 556.877 122.533C557.579 123.338 557.713 124.506 557.564 128.534C557.377 133.56 557.877 135.098 559.248 133.723C559.577 133.393 560.677 133.123 561.692 133.123C563.112 133.123 563.956 133.568 565.349 135.048L567.161 136.974V132.654C567.161 130.279 566.921 128.187 566.629 128.006C566.296 127.799 566.374 127.234 566.838 126.492C567.245 125.84 567.731 124.432 567.917 123.363C568.139 122.091 568.925 120.809 570.191 119.654C571.948 118.051 572.102 117.683 571.872 115.632C571.684 113.969 571.877 113.054 572.599 112.159C573.139 111.491 573.736 110.112 573.926 109.096C574.36 106.779 574.99 106.727 575.438 108.971C575.627 109.92 576.186 111.314 576.681 112.07C577.227 112.906 577.527 114.295 577.446 115.612C577.34 117.341 577.591 118.041 578.689 119.074C579.445 119.787 580.167 120.266 580.293 120.14C580.419 120.014 580.696 117.542 580.908 114.647C581.253 109.926 581.188 109.266 580.277 108.237C579.416 107.264 579.384 107.048 580.069 106.813C580.512 106.66 581.649 105.762 582.595 104.817L584.315 103.099L583.522 100.459C582.438 96.8467 582.932 95.2664 586.079 92.283C589.695 88.8539 590.171 87.5193 589.776 81.911C589.598 79.3908 589.58 77.2642 589.735 77.1852C591.558 76.2598 591.632 76.0452 590.685 74.4382C589.241 71.9873 589.494 70.3687 591.593 68.6211L593.437 67.0863L593.61 60.9114C593.781 54.7916 593.771 54.7302 592.438 54.0461C591.104 53.3609 591.103 53.3557 592.321 53.3478C593.086 53.343 593.712 52.8978 593.982 52.1667L594.415 50.9935L594.721 52.1667C594.912 52.9003 595.449 53.3398 596.153 53.3398C596.772 53.3398 597.279 53.5411 597.279 53.787C597.279 54.0329 596.734 54.2148 596.069 54.1913C594.917 54.1505 594.855 54.3555 594.788 58.4611C594.666 65.839 595.008 67.471 596.936 68.712C598.985 70.0314 599.316 71.7349 597.999 74.1855C596.988 76.0661 597.163 76.5242 599.161 77.2324C599.487 77.3477 599.425 77.7552 599.006 78.2643C598.525 78.8494 598.389 80.3121 598.56 83.0688C598.696 85.2487 598.826 87.3415 598.85 87.7196C598.873 88.0977 600.344 89.9716 602.119 91.8839C605.639 95.6761 606.086 97.3045 604.677 101.208C604.017 103.039 604.04 103.09 606.574 105.39C608.821 107.43 609.023 107.782 608.204 108.242C607.492 108.641 607.294 109.386 607.371 111.376C607.538 115.657 608.142 120.185 608.546 120.185C608.753 120.185 609.482 119.589 610.165 118.861C611.191 117.766 611.348 117.168 611.069 115.42C610.823 113.876 610.95 113.122 611.539 112.632C611.982 112.263 612.681 110.84 613.091 109.469C613.687 107.48 613.908 107.195 614.191 108.056C614.386 108.649 615.017 110.105 615.594 111.291C616.171 112.477 616.643 114.494 616.642 115.774C616.642 117.737 616.935 118.381 618.523 119.881C619.558 120.86 620.405 122.162 620.405 122.775C620.405 123.387 620.687 124.572 621.033 125.406C621.394 126.28 621.599 128.926 621.517 131.641C621.437 134.235 621.499 136.358 621.654 136.358C621.809 136.358 622.662 135.63 623.549 134.74C624.73 133.557 625.669 133.123 627.055 133.123C628.095 133.123 629.096 133.366 629.279 133.662C630.289 135.3 630.685 133.809 630.526 128.968C630.368 124.137 630.448 123.641 631.565 122.523C632.502 121.586 632.783 120.668 632.813 118.458C632.862 114.738 633.13 114.189 635.953 112.028C638.781 109.863 639.972 107.042 639.575 103.445C639.426 102.094 639.507 100.661 639.754 100.26C640.008 99.8474 639.952 98.9754 639.624 98.2542C639.126 97.1599 639.27 96.7305 640.629 95.2397C642.11 93.6147 642.213 93.2194 642.2 89.1885C642.187 85.1314 642.115 84.8657 640.977 84.7036C640.311 84.6089 639.767 84.295 639.767 84.0061C639.767 83.7172 640.069 83.5203 640.439 83.5684C641.968 83.7674 642.456 83.4651 642.464 82.3153C642.471 81.1257 642.485 81.1283 643.166 82.45C643.571 83.2364 644.239 83.7318 644.771 83.6393C645.272 83.5522 645.683 83.7172 645.683 84.0061C645.683 84.295 645.138 84.6089 644.472 84.7036C643.316 84.8682 643.268 85.0783 643.377 89.4078C643.481 93.5199 643.626 94.0808 644.947 95.4623C646.2 96.7728 646.32 97.1665 645.809 98.2889C645.358 99.282 645.385 99.8245 645.925 100.563C646.427 101.253 646.473 101.789 646.083 102.416C644.866 104.37 647.079 111.097 649.209 111.916C651.46 112.782 654.137 107.393 653.558 103.161C653.392 101.945 653.5 100.706 653.798 100.407C654.161 100.043 654.124 99.3901 653.683 98.4214C653.089 97.114 653.18 96.8145 654.648 95.2397C656.184 93.5933 656.267 93.2726 656.22 89.1885C656.173 85.1441 656.095 84.8651 654.96 84.7036C653.314 84.4692 653.421 83.5282 655.094 83.5282C656.12 83.5282 656.447 83.2405 656.473 82.3153L656.507 81.1023L656.993 82.3153C657.274 83.0153 657.942 83.5282 658.573 83.5282C660.059 83.5282 659.963 84.4889 658.456 84.7036C657.53 84.8353 657.206 85.2852 657.078 86.6162C656.986 87.5735 657.134 88.7577 657.408 89.2479C657.722 89.81 657.692 90.7067 657.327 91.676C656.806 93.0575 656.923 93.3946 658.483 95.0071C659.966 96.5411 660.166 97.0583 659.863 98.5749C659.621 99.7898 659.735 100.488 660.225 100.792C660.814 101.157 660.817 101.386 660.241 102.08C659.75 102.673 659.656 103.688 659.925 105.484C660.447 108.974 661.539 110.893 663.746 112.199C666.179 113.637 666.657 114.638 666.657 118.288C666.657 120.706 666.9 121.555 667.867 122.524C669.02 123.678 669.07 124.074 668.912 130.947C668.769 137.151 668.854 138.069 669.515 137.519C670.14 136.999 670.396 137.159 670.88 138.371C671.207 139.191 671.464 140.832 671.449 142.018C671.387 147.136 671.419 147.235 674.303 150.585C675.862 152.396 677.301 153.952 677.501 154.043C677.7 154.134 677.727 156.021 677.56 158.238C677.308 161.57 677.407 162.382 678.129 162.925C678.825 163.447 679.033 164.783 679.15 169.467C679.252 173.588 679.498 175.42 679.968 175.577C680.487 175.749 680.64 173.826 680.64 167.13V158.46H682.767H684.894L685.053 154.821L685.212 151.182L687.229 151.015L689.246 150.848V147.683C689.246 144.812 689.358 144.503 690.456 144.347C691.725 144.166 691.765 143.859 691.281 138.02C691.145 136.382 691.306 136.128 692.741 135.72C693.629 135.468 696.855 135.296 699.91 135.338C705.431 135.415 705.469 135.407 706.217 133.962C706.765 132.903 706.984 130.101 707.022 123.651L707.074 114.795H709.358C711.379 114.795 711.855 114.538 713.486 112.567C714.5 111.341 716.108 110.007 717.06 109.602C718.57 108.959 719.03 108.98 720.683 109.77C721.725 110.268 722.731 110.521 722.919 110.332C723.108 110.143 723.425 108.414 723.623 106.491C724.024 102.611 725.029 101.038 727.447 100.505C729.216 100.116 731.962 101.349 732.793 102.905C733.097 103.476 733.35 105.11 733.355 106.538C733.367 110.337 733.895 110.934 736.249 109.808C738.784 108.597 740.634 109.281 743.224 112.387C745.017 114.537 745.474 114.795 747.491 114.794L749.75 114.793L749.581 123.594C749.437 131.062 749.539 132.5 750.253 133.094C750.716 133.479 751.095 134.129 751.095 134.537C751.095 135.125 752.379 135.28 757.245 135.28C760.627 135.28 764.042 135.527 764.834 135.828C766.113 136.316 766.232 136.57 765.901 138.119C765.697 139.078 765.488 140.832 765.438 142.018C765.359 143.877 765.514 144.198 766.557 144.347C767.657 144.503 767.767 144.811 767.767 147.716V150.913H769.649H771.532V154.687V158.46H773.952H776.372L776.38 169.646C776.386 175.798 776.598 181.163 776.854 181.569C777.226 182.157 777.99 181.913 780.64 180.356C783.592 178.622 784.373 178.406 787.695 178.406C790.691 178.406 791.431 178.242 791.431 177.58C791.431 177.126 791.794 176.615 792.238 176.445C792.897 176.191 793.044 174.868 793.044 169.209C793.044 164.938 792.795 161.735 792.393 160.852C791.851 159.659 791.883 159.317 792.582 158.805C793.154 158.385 793.288 157.846 793.002 157.112C792.236 155.145 792.457 154.687 794.168 154.687H795.83L795.664 151.048C795.573 149.046 795.658 147.152 795.854 146.837C796.049 146.523 796.259 144.522 796.322 142.39C796.384 140.258 796.629 138.514 796.866 138.514C797.498 138.514 798.003 141.767 797.796 144.5C797.639 146.57 797.752 146.87 798.692 146.87C799.431 146.87 799.825 146.449 799.951 145.522C800.052 144.781 800.432 143.811 800.796 143.366C802.683 141.061 802.775 138.89 802.603 100.779C802.457 68.7311 802.31 62.8452 801.582 60.0785C801.115 58.2996 800.757 55.762 800.788 54.4395C800.84 52.1444 800.916 52.0339 802.456 52.0136C803.991 51.9934 804.061 51.8931 803.893 49.9708C803.796 48.859 803.928 47.9493 804.186 47.9493C804.444 47.9493 804.615 45.4628 804.566 42.4237C804.5 38.3387 804.228 36.4063 803.522 35.0114C802.208 32.414 801.114 31.2379 800.01 31.2379C799.078 31.2379 798.423 30.218 798.423 28.7679C798.423 27.7111 800.002 27.8099 801.282 28.9468C802.17 29.7351 802.389 29.7623 802.614 29.1122C802.763 28.6843 803.442 27.7746 804.125 27.0907C805.618 25.5941 807.915 25.4795 810.19 26.7881C811.762 27.6924 811.855 27.6891 812.576 26.7005C813.039 26.0657 813.665 25.8022 814.211 26.0122C815.298 26.4303 815.38 28.4668 814.326 28.8722C813.903 29.0349 813.311 29.8763 813.009 30.742C812.708 31.6076 812.207 32.3158 811.896 32.3158C811.585 32.3158 811.33 32.8172 811.33 33.43C811.33 34.0428 810.725 35.3392 809.986 36.311C808.921 37.7103 808.641 38.7069 808.641 41.1014C808.641 42.7643 808.357 44.7493 808.011 45.5125C807.528 46.574 807.528 47.0488 808.011 47.5325C808.357 47.8802 808.641 49.1039 808.641 50.2518C808.641 52.2112 808.732 52.3283 810.12 52.1655C811.492 52.0048 811.613 52.1489 811.781 54.1485C811.968 56.3752 811.07 61.5235 810.207 63.1707C809.926 63.7079 809.72 79.6716 809.723 100.637C809.73 139.508 809.734 139.561 812.366 144.848C812.993 146.108 813.743 147.139 814.032 147.139C814.502 147.139 814.851 143.749 814.581 141.811C814.41 140.584 815.077 138.514 815.643 138.514C815.94 138.514 816.171 140.242 816.171 142.467C816.171 144.642 816.352 146.603 816.574 146.825C816.796 147.048 816.978 148.847 816.978 150.824V154.417L818.769 154.589C820.205 154.727 820.486 154.94 820.187 155.667C819.347 157.707 819.279 158.592 819.931 158.996C820.469 159.329 820.485 159.806 820.008 161.178C819.672 162.143 819.398 165.904 819.398 169.534C819.398 174.903 819.548 176.192 820.204 176.444C820.648 176.615 821.011 177.126 821.011 177.58C821.011 178.242 821.751 178.406 824.752 178.406C827.942 178.406 828.896 178.644 831.23 180.023C832.735 180.912 834.176 181.64 834.432 181.64C834.688 181.64 835.177 179.881 835.519 177.732C836.676 170.455 840.245 157.099 843.053 149.54C854.983 117.419 873.265 94.8209 897.924 81.7134C928.887 65.2555 972.524 65.0085 1004.42 81.1105C1009.73 83.7896 1019.32 90.3985 1024.99 95.2799C1033.8 102.871 1044.26 116.244 1050.82 128.317C1057.83 141.21 1064.52 159.822 1066.84 172.92C1067.45 176.382 1068.12 179.385 1068.32 179.593C1068.52 179.801 1068.68 174.746 1068.68 168.359V156.748L1074.22 153.905C1077.27 152.341 1080.01 150.825 1080.29 150.536C1080.63 150.202 1080.82 134.514 1080.82 107.739C1080.81 58.1332 1081.07 51.8689 1083.4 45.1055C1089.19 28.2557 1101.19 14.7952 1119.01 5.16184C1121.55 3.78923 1123.79 2.82802 1123.98 3.0258C1124.18 3.22357 1124.34 4.59128 1124.34 6.06515V8.7449L1127.24 8.40318L1130.14 8.06142L1130.86 11.4286C1131.42 14.0622 1131.64 27.3047 1131.86 72.2075L1132.14 129.619L1136.98 129.935C1140.75 130.181 1142.45 130.572 1144.64 131.694L1147.46 133.136L1147.6 157.253L1147.74 181.371L1149.22 181.541L1150.7 181.712V171.541C1150.7 165.665 1150.92 161.149 1151.22 160.846C1151.51 160.557 1151.81 156.446 1151.89 151.709L1152.04 143.096L1153.59 143.07C1154.63 143.053 1155.54 142.538 1156.37 141.504L1157.59 139.964L1167.79 140.273C1173.74 140.453 1178.2 140.375 1178.49 140.086C1178.79 139.784 1179.7 140.117 1180.81 140.939C1181.89 141.737 1183.36 142.288 1184.41 142.288H1186.19V160.886V179.484H1193.18H1200.17L1200.18 177.193C1200.19 175.933 1200.25 163.258 1200.32 149.026C1200.39 134.795 1200.25 122.769 1200.02 122.303C1199.71 121.689 1199.97 121.284 1200.96 120.832C1201.71 120.489 1202.33 119.869 1202.33 119.455C1202.33 119.04 1202.69 118.398 1203.13 118.029C1203.68 117.575 1203.94 116.356 1203.94 114.255C1203.94 111.295 1204.02 111.12 1205.6 110.462C1207.02 109.871 1207.23 109.545 1207.03 108.196C1206.86 106.987 1207.09 106.427 1208.06 105.794C1208.75 105.339 1209.32 104.51 1209.32 103.951C1209.32 103.179 1209.71 102.935 1210.95 102.935C1212.76 102.935 1213.57 101.745 1212.57 100.537C1212.08 99.9454 1212.08 99.4837 1212.6 98.5222C1212.97 97.8361 1213.56 96.3045 1213.92 95.1185L1214.58 92.9622L1214.93 94.5794C1215.13 95.4689 1215.69 97.0024 1216.17 97.9872C1216.89 99.4445 1216.93 99.9752 1216.4 100.839C1215.55 102.192 1216.01 102.935 1217.7 102.935C1218.62 102.935 1219.18 103.348 1219.54 104.283C1219.82 105.024 1220.41 105.631 1220.86 105.631C1221.61 105.631 1222.42 107.457 1222.19 108.63C1221.96 109.853 1222.31 110.388 1223.57 110.704C1224.8 111.012 1224.91 111.297 1224.91 113.959C1224.91 116.966 1226.51 120.463 1228.05 120.826C1228.63 120.962 1228.75 124.451 1228.7 139.188L1228.64 157.382H1231.35H1234.06V154.108V150.835L1237.07 150.975C1239.44 151.085 1240.2 150.919 1240.59 150.205C1240.97 149.525 1241.84 149.296 1244.03 149.296H1246.96V147.409V145.522H1251.23C1255.11 145.522 1255.51 145.622 1255.67 146.622C1255.76 147.226 1256.02 147.712 1256.24 147.7C1256.46 147.688 1257.5 147.678 1258.55 147.678H1260.46L1260.38 134.362C1260.31 122.511 1260.4 121.012 1261.18 120.738C1262.59 120.241 1263.64 117.579 1263.64 114.477C1263.64 111.812 1263.76 111.523 1265.25 110.752C1266.58 110.064 1266.86 109.58 1266.86 108.029C1266.86 106.513 1267.13 106.042 1268.21 105.63C1269.03 105.317 1269.55 104.695 1269.55 104.026C1269.55 103.178 1269.91 102.935 1271.13 102.935C1273.06 102.935 1273.57 102.25 1272.7 100.853C1272.17 100.002 1272.22 99.548 1272.95 98.4246C1273.45 97.6648 1273.86 96.4886 1273.86 95.8111C1273.87 95.1335 1274.11 94.2154 1274.39 93.7706C1274.81 93.1295 1274.92 93.2412 1274.93 94.3097C1274.93 95.0509 1275.3 96.3522 1275.74 97.2014C1276.7 99.0381 1276.76 100.343 1275.95 101.163C1275.04 102.067 1275.87 102.935 1277.64 102.935C1278.86 102.935 1279.29 103.231 1279.54 104.252C1279.74 105.053 1280.33 105.633 1281.03 105.734C1281.97 105.868 1282.22 106.32 1282.35 108.074C1282.47 109.709 1282.81 110.377 1283.7 110.769C1284.65 111.19 1284.93 111.86 1285.15 114.256C1285.44 117.425 1286.74 120.395 1288.08 120.908C1288.77 121.174 1288.92 123.104 1289.04 133.453L1289.18 145.685L1292.25 145.776L1295.32 145.867L1295.48 143.943L1295.64 142.018L1299.94 141.858C1305.73 141.643 1306.66 141.92 1306.66 143.849C1306.66 145.924 1307.47 146.457 1310.97 146.681L1313.92 146.87L1314.08 140.859L1314.23 134.848L1316.1 134.902C1317.46 134.94 1318.2 134.629 1318.8 133.77C1319.78 132.377 1320.78 132.257 1321.74 133.42C1322.19 133.961 1323.12 134.199 1324.36 134.094C1326.22 133.938 1326.3 133.844 1326.46 131.641L1326.62 129.35L1331.3 129.356C1333.87 129.361 1336.87 129.51 1337.97 129.692L1339.96 130.023L1340.12 133.836C1340.27 137.443 1340.36 137.699 1341.89 138.557C1342.78 139.056 1345.11 139.602 1347.06 139.771L1350.62 140.078L1351.46 137.948C1352.11 136.271 1352.57 135.819 1353.62 135.819C1354.49 135.819 1355.04 135.451 1355.22 134.741C1355.38 134.148 1355.89 133.662 1356.36 133.662C1357 133.662 1357.22 133.124 1357.22 131.55C1357.22 130.389 1357.36 129.054 1357.54 128.585C1357.95 127.523 1360.23 127.461 1360.62 128.502C1360.98 129.444 1366.05 129.334 1367.02 128.364C1367.37 128.017 1368.6 127.733 1369.75 127.733C1371.39 127.733 1372.11 127.412 1373.01 126.282C1373.64 125.484 1374.29 124.332 1374.45 123.721C1374.86 122.162 1377.1 121.908 1377.49 123.377C1377.93 125.064 1379.81 124.848 1379.81 123.111V121.724L1384.24 121.987C1388.4 122.233 1391.33 122.586 1394.19 123.187C1395.31 123.42 1395.4 123.737 1395.4 127.172C1395.4 129.224 1395.6 131.027 1395.84 131.177C1396.09 131.328 1399.17 131.617 1402.7 131.82C1406.23 132.023 1409.54 132.408 1410.06 132.676C1410.94 133.131 1411 135.483 1411 170.473V183M907.257 181.371C907.513 180.702 908.952 180.562 915.565 180.562C919.964 180.562 927.958 180.403 933.33 180.207L943.097 179.853V178.387C943.097 177.58 943.444 176.631 943.869 176.278C944.293 175.925 944.801 174.905 944.997 174.012C945.272 172.756 945.082 172.099 944.157 171.112L942.962 169.837L944.374 167.421C946.22 164.263 946.183 163.068 944.211 162.25C942.353 161.478 940.608 159.697 941.164 159.139C941.379 158.924 942.495 159.289 943.643 159.951C946.016 161.32 946.323 161.391 946.323 160.563C946.323 160.237 947.05 159.291 947.937 158.46C948.824 157.629 949.55 156.561 949.55 156.087C949.55 155.092 948.943 154.972 948.113 155.804C947.356 156.563 944.049 156.225 943.766 155.36C943.644 154.99 943.92 154.686 944.378 154.686C944.836 154.686 946.037 153.959 947.048 153.069C949.107 151.257 951.642 150.93 953.008 152.299C954.061 153.355 954.075 154.186 953.063 155.527C952.049 156.871 952.045 157.694 953.047 158.864C956.831 163.283 957.618 164.368 957.618 165.164C957.618 165.667 957.879 166.568 958.199 167.167C959.134 168.917 958.171 169.112 956.839 167.441C955.128 165.296 954.809 166.538 955.803 171.477C956.34 174.144 956.943 175.683 957.647 176.18C958.223 176.587 958.693 177.477 958.693 178.157C958.693 179.749 958.844 179.786 964.565 179.581C969.046 179.421 969.396 179.326 969.552 178.234C969.665 177.439 970.285 176.891 971.467 176.542C973.442 175.959 973.544 175.555 972.408 172.829C971.249 170.049 971.395 168.975 973.214 166.898C974.4 165.544 974.832 164.504 974.845 162.971L974.862 160.886L975.979 162.386C977.28 164.135 978.307 163.688 978.868 161.128L979.212 159.559L984.146 159.858C993.433 160.42 994.025 160.555 995.732 162.504C996.59 163.484 997.381 164.55 997.489 164.874C997.7 165.505 1004.91 167.461 1013.75 169.284C1020.55 170.687 1038.29 171.441 1038.29 170.327C1038.29 168.343 1035.18 156.121 1032.91 149.209C1027.64 133.134 1020.55 121.208 1009.83 110.404C996.261 96.7311 981.659 89.9279 961.46 87.8694C932.418 84.9095 906.841 94.2195 889.712 113.986C877.981 127.524 869.292 146.896 865.39 168.212C864.33 174.003 863.508 181.217 863.845 181.765C863.986 181.993 873.741 182.179 885.524 182.179C904.071 182.179 906.989 182.071 907.257 181.371ZM741.143 171.667C741.143 163.182 741.046 162.293 739.865 159.669C737.636 154.717 734.078 152.54 728.209 152.533C724.727 152.528 720.622 154.538 718.903 157.086C716.538 160.59 716.185 162.52 716.16 172.081L716.136 181.121L728.641 180.976L741.145 180.832V171.667H741.143ZM809.986 171.588C809.986 165.904 809.851 164.889 808.962 163.906C807.733 162.547 805.6 162.438 804.247 163.665C803.391 164.441 803.263 165.458 803.263 171.507V178.457L806.625 178.297L809.986 178.136V171.588Z" stroke="url(#paint0_linear)" stroke-width="5"/>
<path d="M1412 183C1412 175.171 1412.21 179.484 1412.48 179.484C1413.22 179.484 1413.53 177.577 1412.94 176.531C1412.56 175.849 1412.62 175.454 1413.15 175.128C1413.68 174.801 1413.93 173.038 1414.06 168.858C1414.16 165.659 1414.46 162.812 1414.73 162.53C1415.44 161.797 1415.34 156.637 1414.61 155.902C1414.15 155.439 1414.87 154.339 1417.5 151.486L1421.01 147.688L1421.05 143.871C1421.07 141.772 1421.36 139.209 1421.7 138.175C1422.28 136.418 1422.37 136.359 1423.11 137.27C1423.8 138.132 1423.87 137.4 1423.67 130.92C1423.46 123.908 1423.5 123.546 1424.65 122.441C1425.59 121.528 1425.85 120.661 1425.87 118.283C1425.9 114.929 1426.92 112.868 1428.94 112.098C1431.28 111.208 1433.57 104.557 1432.34 102.227C1432 101.588 1432.02 101.015 1432.38 100.575C1432.69 100.205 1432.8 99.0452 1432.63 97.9983C1432.37 96.4111 1432.54 95.9206 1433.65 95.0467C1434.87 94.0839 1434.99 93.6172 1435.05 89.3025C1435.1 84.9564 1435.03 84.6064 1434.04 84.6064C1433.46 84.6064 1432.97 84.3638 1432.97 84.0673C1432.97 83.7708 1433.46 83.5282 1434.05 83.5282C1434.77 83.5282 1435.13 83.1688 1435.13 82.45C1435.13 80.9729 1436.09 81.0832 1436.3 82.5848C1436.43 83.4961 1436.77 83.7558 1437.68 83.629C1438.35 83.5363 1438.89 83.7183 1438.89 84.0334C1438.89 84.3485 1438.29 84.6064 1437.55 84.6064C1436.21 84.6064 1436.21 84.6279 1436.34 89.1508C1436.46 93.0775 1436.65 93.8794 1437.75 95.0505C1438.77 96.1381 1438.95 96.7653 1438.68 98.2264C1438.49 99.2278 1438.52 100.222 1438.73 100.436C1438.94 100.65 1439.13 102.495 1439.14 104.535C1439.15 107.412 1439.41 108.578 1440.26 109.726C1442.19 112.318 1443.09 112.566 1444.53 110.905C1446.16 109.028 1447.27 103.993 1446.42 102.387C1445.98 101.574 1445.97 101.05 1446.39 100.552C1446.72 100.151 1446.81 99.0964 1446.61 98.07C1446.31 96.5667 1446.47 96.1082 1447.64 95.1627C1448.77 94.2513 1449.04 93.5333 1449.12 91.3448C1449.31 85.4032 1449.18 84.6064 1448.03 84.6064C1447.44 84.6064 1446.96 84.3532 1446.96 84.0436C1446.96 83.7341 1447.38 83.5522 1447.9 83.6393C1448.53 83.7451 1448.9 83.3946 1449.01 82.5848C1449.11 81.9177 1449.39 81.3719 1449.65 81.3719C1449.9 81.3719 1450.19 81.9177 1450.28 82.5848C1450.41 83.4802 1450.77 83.7641 1451.67 83.6693C1452.33 83.5987 1452.87 83.7806 1452.87 84.0736C1452.87 84.3666 1452.27 84.6064 1451.53 84.6064C1450.18 84.6064 1450.18 84.6063 1450.38 89.1546C1450.55 93.1113 1450.75 93.92 1451.97 95.3719C1453.17 96.7983 1453.29 97.232 1452.78 98.3548C1452.33 99.3363 1452.34 99.8641 1452.82 100.442C1453.19 100.889 1453.31 101.807 1453.11 102.621C1452.91 103.394 1452.92 105.176 1453.13 106.581C1453.45 108.771 1453.93 109.525 1456.46 111.88C1459.33 114.549 1459.42 114.72 1459.71 118.079C1459.88 120.12 1460.36 121.942 1460.88 122.533C1461.58 123.338 1461.71 124.506 1461.56 128.534C1461.38 133.56 1461.88 135.098 1463.25 133.723C1463.58 133.393 1464.68 133.123 1465.69 133.123C1467.11 133.123 1467.96 133.568 1469.35 135.048L1471.16 136.974L1471.16 132.654C1471.16 130.279 1470.92 128.187 1470.63 128.006C1470.3 127.799 1470.37 127.234 1470.84 126.492C1471.24 125.84 1471.73 124.432 1471.92 123.363C1472.14 122.091 1472.92 120.809 1474.19 119.654C1475.95 118.051 1476.1 117.683 1475.87 115.632C1475.68 113.969 1475.88 113.054 1476.6 112.159C1477.14 111.491 1477.74 110.112 1477.93 109.096C1478.36 106.779 1478.99 106.727 1479.44 108.971C1479.63 109.92 1480.19 111.314 1480.68 112.07C1481.23 112.906 1481.53 114.295 1481.45 115.612C1481.34 117.341 1481.59 118.041 1482.69 119.074C1483.45 119.787 1484.17 120.266 1484.29 120.14C1484.42 120.014 1484.7 117.542 1484.91 114.647C1485.25 109.926 1485.19 109.266 1484.28 108.237C1483.42 107.264 1483.38 107.048 1484.07 106.813C1484.51 106.66 1485.65 105.762 1486.6 104.817L1488.32 103.099L1487.52 100.459C1486.44 96.8467 1486.93 95.2664 1490.08 92.283C1493.7 88.8539 1494.17 87.5193 1493.78 81.911C1493.6 79.3908 1493.58 77.2642 1493.74 77.1853C1495.56 76.2598 1495.63 76.0452 1494.69 74.4382C1493.24 71.9873 1493.49 70.3687 1495.59 68.6211L1497.44 67.0863L1497.61 60.9114C1497.78 54.7916 1497.77 54.7302 1496.44 54.0461C1495.1 53.3609 1495.1 53.3557 1496.32 53.3478C1497.09 53.343 1497.71 52.8978 1497.98 52.1667L1498.41 50.9935L1498.72 52.1667C1498.91 52.9003 1499.45 53.3398 1500.15 53.3398C1500.77 53.3398 1501.28 53.5411 1501.28 53.787C1501.28 54.0329 1500.73 54.2148 1500.07 54.1913C1498.92 54.1505 1498.86 54.3555 1498.79 58.4611C1498.67 65.839 1499.01 67.471 1500.94 68.712C1502.98 70.0314 1503.32 71.7349 1502 74.1855C1500.99 76.0661 1501.16 76.5242 1503.16 77.2324C1503.49 77.3477 1503.43 77.7552 1503.01 78.2643C1502.52 78.8494 1502.39 80.3121 1502.56 83.0688C1502.7 85.2487 1502.83 87.3415 1502.85 87.7196C1502.87 88.0977 1504.34 89.9716 1506.12 91.8839C1509.64 95.6761 1510.09 97.3045 1508.68 101.208C1508.02 103.039 1508.04 103.09 1510.57 105.39C1512.82 107.43 1513.02 107.782 1512.2 108.242C1511.49 108.641 1511.29 109.386 1511.37 111.376C1511.54 115.657 1512.14 120.185 1512.55 120.185C1512.75 120.185 1513.48 119.589 1514.17 118.861C1515.19 117.766 1515.35 117.168 1515.07 115.42C1514.82 113.876 1514.95 113.122 1515.54 112.632C1515.98 112.263 1516.68 110.84 1517.09 109.469C1517.69 107.48 1517.91 107.195 1518.19 108.056C1518.39 108.649 1519.02 110.105 1519.59 111.291C1520.17 112.477 1520.64 114.494 1520.64 115.774C1520.64 117.737 1520.94 118.381 1522.52 119.881C1523.56 120.86 1524.4 122.162 1524.4 122.775C1524.4 123.387 1524.69 124.572 1525.03 125.406C1525.39 126.28 1525.6 128.926 1525.52 131.641C1525.44 134.235 1525.5 136.358 1525.65 136.358C1525.81 136.358 1526.66 135.63 1527.55 134.74C1528.73 133.557 1529.67 133.123 1531.05 133.123C1532.1 133.123 1533.1 133.366 1533.28 133.662C1534.29 135.3 1534.68 133.809 1534.53 128.968C1534.37 124.137 1534.45 123.641 1535.56 122.523C1536.5 121.586 1536.78 120.668 1536.81 118.458C1536.86 114.738 1537.13 114.189 1539.95 112.028C1542.78 109.863 1543.97 107.042 1543.58 103.445C1543.43 102.094 1543.51 100.661 1543.75 100.26C1544.01 99.8474 1543.95 98.9754 1543.62 98.2542C1543.13 97.1599 1543.27 96.7305 1544.63 95.2397C1546.11 93.6147 1546.21 93.2195 1546.2 89.1885C1546.19 85.1314 1546.12 84.8657 1544.98 84.7036C1544.31 84.6089 1543.77 84.295 1543.77 84.0061C1543.77 83.7172 1544.07 83.5203 1544.44 83.5684C1545.97 83.7674 1546.46 83.4651 1546.46 82.3153C1546.47 81.1257 1546.49 81.1283 1547.17 82.45C1547.57 83.2364 1548.24 83.7318 1548.77 83.6393C1549.27 83.5522 1549.68 83.7172 1549.68 84.0061C1549.68 84.295 1549.14 84.6089 1548.47 84.7036C1547.32 84.8682 1547.27 85.0783 1547.38 89.4078C1547.48 93.5199 1547.63 94.0808 1548.95 95.4623C1550.2 96.7728 1550.32 97.1665 1549.81 98.289C1549.36 99.282 1549.39 99.8245 1549.92 100.563C1550.43 101.253 1550.47 101.789 1550.08 102.416C1548.87 104.37 1551.08 111.097 1553.21 111.916C1555.46 112.782 1558.14 107.393 1557.56 103.161C1557.39 101.945 1557.5 100.706 1557.8 100.407C1558.16 100.043 1558.12 99.3901 1557.68 98.4214C1557.09 97.114 1557.18 96.8145 1558.65 95.2397C1560.18 93.5933 1560.27 93.2726 1560.22 89.1885C1560.17 85.1441 1560.09 84.8651 1558.96 84.7036C1557.31 84.4692 1557.42 83.5282 1559.09 83.5282C1560.12 83.5282 1560.45 83.2405 1560.47 82.3153L1560.51 81.1024L1560.99 82.3153C1561.27 83.0153 1561.94 83.5282 1562.57 83.5282C1564.06 83.5282 1563.96 84.4889 1562.46 84.7036C1561.53 84.8353 1561.21 85.2852 1561.08 86.6162C1560.99 87.5735 1561.13 88.7577 1561.41 89.2479C1561.72 89.81 1561.69 90.7067 1561.33 91.676C1560.81 93.0575 1560.92 93.3946 1562.48 95.0071C1563.97 96.5411 1564.17 97.0583 1563.86 98.5749C1563.62 99.7898 1563.73 100.488 1564.23 100.792C1564.81 101.157 1564.82 101.386 1564.24 102.08C1563.75 102.673 1563.66 103.688 1563.92 105.484C1564.45 108.974 1565.54 110.893 1567.75 112.199C1570.18 113.637 1570.66 114.638 1570.66 118.288C1570.66 120.706 1570.9 121.555 1571.87 122.524C1573.02 123.678 1573.07 124.074 1572.91 130.947C1572.77 137.151 1572.85 138.069 1573.52 137.519C1574.14 136.999 1574.4 137.159 1574.88 138.371C1575.21 139.191 1575.46 140.832 1575.45 142.018C1575.39 147.136 1575.42 147.235 1578.3 150.585C1579.86 152.396 1581.3 153.952 1581.5 154.043C1581.7 154.134 1581.73 156.021 1581.56 158.238C1581.31 161.57 1581.41 162.382 1582.13 162.925C1582.82 163.447 1583.03 164.783 1583.15 169.467C1583.25 173.588 1583.5 175.42 1583.97 175.577C1584.49 175.749 1584.64 173.826 1584.64 167.13L1584.64 158.46L1586.77 158.46L1588.89 158.46L1589.05 154.821L1589.21 151.182L1591.23 151.015L1593.25 150.848L1593.25 147.683C1593.25 144.812 1593.36 144.503 1594.46 144.347C1595.72 144.166 1595.76 143.859 1595.28 138.02C1595.14 136.382 1595.31 136.128 1596.74 135.72C1597.63 135.468 1600.85 135.296 1603.91 135.338C1609.43 135.415 1609.47 135.407 1610.22 133.962C1610.76 132.903 1610.98 130.101 1611.02 123.651L1611.07 114.795L1613.36 114.795C1615.38 114.795 1615.85 114.538 1617.49 112.567C1618.5 111.341 1620.11 110.007 1621.06 109.602C1622.57 108.959 1623.03 108.98 1624.68 109.77C1625.72 110.268 1626.73 110.521 1626.92 110.332C1627.11 110.143 1627.42 108.414 1627.62 106.491C1628.02 102.611 1629.03 101.038 1631.45 100.505C1633.22 100.116 1635.96 101.349 1636.79 102.905C1637.1 103.476 1637.35 105.11 1637.35 106.538C1637.37 110.337 1637.89 110.934 1640.25 109.808C1642.78 108.597 1644.63 109.281 1647.22 112.387C1649.02 114.537 1649.47 114.795 1651.49 114.794L1653.75 114.793L1653.58 123.594C1653.44 131.062 1653.54 132.5 1654.25 133.094C1654.72 133.479 1655.09 134.129 1655.09 134.537C1655.09 135.125 1656.38 135.28 1661.24 135.28C1664.63 135.28 1668.04 135.527 1668.83 135.828C1670.11 136.316 1670.23 136.57 1669.9 138.119C1669.7 139.078 1669.49 140.832 1669.44 142.018C1669.36 143.877 1669.51 144.198 1670.56 144.347C1671.66 144.503 1671.77 144.811 1671.77 147.716L1671.77 150.913L1673.65 150.913L1675.53 150.913L1675.53 154.687L1675.53 158.46L1677.95 158.46L1680.37 158.46L1680.38 169.646C1680.39 175.798 1680.6 181.163 1680.85 181.569C1681.23 182.157 1681.99 181.913 1684.64 180.356C1687.59 178.622 1688.37 178.406 1691.7 178.406C1694.69 178.406 1695.43 178.242 1695.43 177.58C1695.43 177.126 1695.79 176.615 1696.24 176.445C1696.9 176.191 1697.04 174.868 1697.04 169.209C1697.04 164.938 1696.8 161.736 1696.39 160.852C1695.85 159.659 1695.88 159.317 1696.58 158.805C1697.15 158.385 1697.29 157.846 1697 157.112C1696.24 155.145 1696.46 154.687 1698.17 154.687L1699.83 154.687L1699.66 151.048C1699.57 149.046 1699.66 147.152 1699.85 146.837C1700.05 146.523 1700.26 144.522 1700.32 142.39C1700.38 140.258 1700.63 138.514 1700.87 138.514C1701.5 138.514 1702 141.767 1701.8 144.5C1701.64 146.57 1701.75 146.87 1702.69 146.87C1703.43 146.87 1703.82 146.449 1703.95 145.522C1704.05 144.781 1704.43 143.811 1704.8 143.366C1706.68 141.061 1706.78 138.89 1706.6 100.779C1706.46 68.7311 1706.31 62.8452 1705.58 60.0785C1705.11 58.2996 1704.76 55.762 1704.79 54.4395C1704.84 52.1444 1704.92 52.0339 1706.46 52.0136C1707.99 51.9934 1708.06 51.8931 1707.89 49.9708C1707.8 48.859 1707.93 47.9493 1708.19 47.9493C1708.44 47.9493 1708.61 45.4628 1708.57 42.4237C1708.5 38.3387 1708.23 36.4063 1707.52 35.0114C1706.21 32.414 1705.11 31.2379 1704.01 31.2379C1703.08 31.2379 1702.42 30.218 1702.42 28.7679C1702.42 27.7111 1704 27.8099 1705.28 28.9468C1706.17 29.7351 1706.39 29.7623 1706.61 29.1122C1706.76 28.6843 1707.44 27.7746 1708.12 27.0907C1709.62 25.5941 1711.91 25.4795 1714.19 26.7881C1715.76 27.6924 1715.85 27.689 1716.58 26.7005C1717.04 26.0657 1717.66 25.8022 1718.21 26.0121C1719.3 26.4303 1719.38 28.4668 1718.33 28.8722C1717.9 29.0349 1717.31 29.8763 1717.01 30.742C1716.71 31.6076 1716.21 32.3158 1715.9 32.3158C1715.59 32.3158 1715.33 32.8172 1715.33 33.43C1715.33 34.0428 1714.73 35.3392 1713.99 36.311C1712.92 37.7103 1712.64 38.7069 1712.64 41.1014C1712.64 42.7643 1712.36 44.7493 1712.01 45.5125C1711.53 46.574 1711.53 47.0488 1712.01 47.5325C1712.36 47.8802 1712.64 49.1039 1712.64 50.2518C1712.64 52.2112 1712.73 52.3283 1714.12 52.1655C1715.49 52.0048 1715.61 52.1489 1715.78 54.1485C1715.97 56.3752 1715.07 61.5235 1714.21 63.1707C1713.93 63.7079 1713.72 79.6716 1713.72 100.637C1713.73 139.508 1713.73 139.561 1716.37 144.848C1716.99 146.108 1717.74 147.139 1718.03 147.139C1718.5 147.139 1718.85 143.749 1718.58 141.811C1718.41 140.584 1719.08 138.514 1719.64 138.514C1719.94 138.514 1720.17 140.242 1720.17 142.467C1720.17 144.642 1720.35 146.603 1720.57 146.826C1720.8 147.048 1720.98 148.847 1720.98 150.824L1720.98 154.417L1722.77 154.589C1724.21 154.727 1724.49 154.94 1724.19 155.667C1723.35 157.707 1723.28 158.592 1723.93 158.996C1724.47 159.329 1724.49 159.806 1724.01 161.178C1723.67 162.143 1723.4 165.904 1723.4 169.534C1723.4 174.903 1723.55 176.192 1724.2 176.444C1724.65 176.615 1725.01 177.126 1725.01 177.58C1725.01 178.242 1725.75 178.406 1728.75 178.406C1731.94 178.406 1732.9 178.644 1735.23 180.023C1736.73 180.912 1738.18 181.64 1738.43 181.64C1738.69 181.64 1739.18 179.881 1739.52 177.732C1740.68 170.455 1744.24 157.099 1747.05 149.54C1758.98 117.419 1777.26 94.8209 1801.92 81.7134C1832.89 65.2555 1876.52 65.0085 1908.42 81.1105C1913.73 83.7896 1923.32 90.3985 1928.99 95.2799C1937.8 102.871 1948.26 116.244 1954.82 128.317C1961.83 141.21 1968.52 159.822 1970.84 172.92C1971.45 176.382 1972.12 179.385 1972.32 179.593C1972.52 179.801 1972.68 174.746 1972.68 168.359L1972.68 156.748L1978.22 153.905C1981.27 152.341 1984.01 150.825 1984.29 150.536C1984.63 150.202 1984.82 134.514 1984.82 107.739C1984.81 58.1332 1985.07 51.8689 1987.4 45.1055C1993.19 28.2557 2005.19 14.7952 2023.01 5.16183C2025.55 3.78923 2027.79 2.82801 2027.98 3.02579C2028.18 3.22357 2028.34 4.59127 2028.34 6.06514L2028.34 8.7449L2031.24 8.40317L2034.14 8.06141L2034.86 11.4286C2035.42 14.0622 2035.64 27.3047 2035.86 72.2075L2036.14 129.619L2040.98 129.935C2044.75 130.181 2046.45 130.572 2048.64 131.694L2051.46 133.136L2051.6 157.253L2051.74 181.371L2053.22 181.541L2054.7 181.712L2054.7 171.541C2054.7 165.665 2054.92 161.149 2055.22 160.846C2055.51 160.557 2055.81 156.446 2055.89 151.709L2056.04 143.096L2057.59 143.07C2058.63 143.053 2059.54 142.539 2060.37 141.504L2061.59 139.964L2071.79 140.273C2077.74 140.453 2082.2 140.375 2082.49 140.086C2082.79 139.784 2083.7 140.117 2084.81 140.939C2085.89 141.737 2087.36 142.288 2088.41 142.288L2090.19 142.288L2090.19 160.886L2090.19 179.484L2097.18 179.484L2104.17 179.484L2104.18 177.193C2104.19 175.933 2104.25 163.258 2104.32 149.026C2104.39 134.795 2104.25 122.769 2104.02 122.303C2103.71 121.689 2103.97 121.284 2104.96 120.832C2105.71 120.489 2106.33 119.869 2106.33 119.455C2106.33 119.04 2106.69 118.398 2107.13 118.029C2107.68 117.575 2107.94 116.356 2107.94 114.255C2107.94 111.295 2108.02 111.12 2109.6 110.462C2111.02 109.871 2111.23 109.545 2111.03 108.196C2110.86 106.987 2111.09 106.427 2112.06 105.794C2112.75 105.339 2113.32 104.51 2113.32 103.951C2113.32 103.179 2113.71 102.935 2114.95 102.935C2116.76 102.935 2117.57 101.745 2116.57 100.537C2116.08 99.9454 2116.08 99.4837 2116.6 98.5222C2116.97 97.8361 2117.56 96.3045 2117.92 95.1185L2118.58 92.9622L2118.93 94.5794C2119.13 95.4689 2119.69 97.0024 2120.17 97.9872C2120.89 99.4445 2120.93 99.9752 2120.4 100.839C2119.55 102.192 2120.01 102.935 2121.7 102.935C2122.62 102.935 2123.18 103.348 2123.54 104.283C2123.82 105.024 2124.41 105.631 2124.86 105.631C2125.61 105.631 2126.42 107.457 2126.19 108.63C2125.96 109.853 2126.31 110.388 2127.57 110.704C2128.8 111.012 2128.91 111.297 2128.91 113.959C2128.91 116.966 2130.51 120.463 2132.05 120.826C2132.63 120.962 2132.75 124.451 2132.7 139.188L2132.64 157.382L2135.35 157.382L2138.06 157.382L2138.06 154.108L2138.06 150.835L2141.07 150.975C2143.44 151.085 2144.2 150.919 2144.59 150.205C2144.97 149.525 2145.84 149.296 2148.03 149.296L2150.96 149.296L2150.96 147.409L2150.96 145.522L2155.23 145.522C2159.11 145.522 2159.51 145.622 2159.67 146.622C2159.76 147.226 2160.02 147.712 2160.24 147.7C2160.46 147.688 2161.5 147.678 2162.55 147.678L2164.46 147.678L2164.38 134.362C2164.31 122.511 2164.4 121.012 2165.18 120.738C2166.59 120.241 2167.64 117.579 2167.64 114.477C2167.64 111.812 2167.76 111.523 2169.25 110.752C2170.58 110.064 2170.86 109.58 2170.86 108.029C2170.86 106.513 2171.13 106.042 2172.21 105.63C2173.03 105.317 2173.55 104.695 2173.55 104.026C2173.55 103.178 2173.91 102.935 2175.13 102.935C2177.06 102.935 2177.57 102.25 2176.7 100.853C2176.17 100.002 2176.22 99.548 2176.95 98.4246C2177.45 97.6648 2177.86 96.4886 2177.86 95.8111C2177.87 95.1335 2178.11 94.2154 2178.39 93.7706C2178.81 93.1295 2178.92 93.2412 2178.93 94.3097C2178.93 95.0509 2179.3 96.3522 2179.74 97.2014C2180.7 99.0381 2180.76 100.343 2179.95 101.163C2179.04 102.067 2179.87 102.935 2181.64 102.935C2182.86 102.935 2183.29 103.231 2183.54 104.252C2183.74 105.053 2184.33 105.633 2185.03 105.734C2185.97 105.868 2186.22 106.32 2186.35 108.074C2186.47 109.709 2186.81 110.377 2187.7 110.769C2188.65 111.19 2188.93 111.86 2189.15 114.256C2189.44 117.425 2190.74 120.395 2192.08 120.908C2192.77 121.174 2192.92 123.104 2193.04 133.453L2193.18 145.685L2196.25 145.776L2199.32 145.867L2199.48 143.943L2199.64 142.018L2203.94 141.858C2209.73 141.643 2210.66 141.92 2210.66 143.849C2210.66 145.924 2211.47 146.457 2214.97 146.681L2217.92 146.87L2218.08 140.859L2218.23 134.848L2220.1 134.902C2221.46 134.94 2222.2 134.629 2222.8 133.77C2223.78 132.377 2224.78 132.257 2225.74 133.42C2226.19 133.961 2227.12 134.199 2228.36 134.094C2230.22 133.938 2230.3 133.844 2230.46 131.641L2230.62 129.35L2235.3 129.356C2237.87 129.361 2240.87 129.51 2241.97 129.692L2243.96 130.023L2244.12 133.836C2244.27 137.443 2244.36 137.699 2245.89 138.557C2246.78 139.056 2249.11 139.602 2251.06 139.771L2254.62 140.078L2255.46 137.948C2256.11 136.271 2256.57 135.819 2257.62 135.819C2258.49 135.819 2259.04 135.451 2259.22 134.741C2259.38 134.148 2259.89 133.662 2260.36 133.662C2261 133.662 2261.22 133.124 2261.22 131.55C2261.22 130.389 2261.36 129.054 2261.54 128.585C2261.95 127.523 2264.23 127.461 2264.62 128.502C2264.98 129.444 2270.05 129.334 2271.02 128.364C2271.37 128.017 2272.6 127.733 2273.75 127.733C2275.39 127.733 2276.11 127.412 2277.01 126.282C2277.64 125.484 2278.29 124.332 2278.45 123.721C2278.86 122.162 2281.1 121.908 2281.49 123.377C2281.93 125.064 2283.81 124.848 2283.81 123.111L2283.81 121.724L2288.24 121.987C2292.4 122.233 2295.33 122.586 2298.19 123.187C2299.31 123.42 2299.4 123.737 2299.4 127.172C2299.4 129.224 2299.6 131.027 2299.84 131.177C2300.09 131.328 2303.17 131.617 2306.7 131.82C2310.23 132.023 2313.54 132.408 2314.06 132.676C2314.94 133.131 2315 135.483 2315 170.473L2315 183M1811.26 181.371C1811.51 180.702 1812.95 180.562 1819.56 180.562C1823.96 180.562 1831.96 180.403 1837.33 180.207L1847.1 179.853L1847.1 178.387C1847.1 177.58 1847.44 176.631 1847.87 176.278C1848.29 175.925 1848.8 174.905 1849 174.012C1849.27 172.756 1849.08 172.099 1848.16 171.112L1846.96 169.837L1848.37 167.421C1850.22 164.263 1850.18 163.068 1848.21 162.25C1846.35 161.478 1844.61 159.697 1845.16 159.139C1845.38 158.924 1846.49 159.289 1847.64 159.951C1850.02 161.32 1850.32 161.391 1850.32 160.563C1850.32 160.237 1851.05 159.291 1851.94 158.46C1852.82 157.629 1853.55 156.561 1853.55 156.087C1853.55 155.092 1852.94 154.972 1852.11 155.804C1851.36 156.563 1848.05 156.225 1847.77 155.36C1847.64 154.99 1847.92 154.686 1848.38 154.686C1848.84 154.686 1850.04 153.959 1851.05 153.069C1853.11 151.257 1855.64 150.93 1857.01 152.299C1858.06 153.355 1858.08 154.186 1857.06 155.527C1856.05 156.871 1856.04 157.694 1857.05 158.864C1860.83 163.283 1861.62 164.368 1861.62 165.164C1861.62 165.667 1861.88 166.568 1862.2 167.167C1863.13 168.917 1862.17 169.112 1860.84 167.441C1859.13 165.296 1858.81 166.538 1859.8 171.477C1860.34 174.144 1860.94 175.683 1861.65 176.18C1862.22 176.587 1862.69 177.477 1862.69 178.157C1862.69 179.749 1862.84 179.786 1868.56 179.581C1873.05 179.421 1873.4 179.326 1873.55 178.234C1873.66 177.439 1874.29 176.891 1875.47 176.542C1877.44 175.959 1877.54 175.555 1876.41 172.829C1875.25 170.049 1875.4 168.975 1877.21 166.898C1878.4 165.544 1878.83 164.504 1878.84 162.971L1878.86 160.886L1879.98 162.386C1881.28 164.135 1882.31 163.688 1882.87 161.128L1883.21 159.559L1888.15 159.858C1897.43 160.42 1898.03 160.555 1899.73 162.504C1900.59 163.484 1901.38 164.55 1901.49 164.874C1901.7 165.505 1908.91 167.461 1917.75 169.284C1924.55 170.687 1942.29 171.441 1942.29 170.327C1942.29 168.343 1939.18 156.121 1936.91 149.209C1931.64 133.134 1924.55 121.208 1913.83 110.404C1900.26 96.7311 1885.66 89.9279 1865.46 87.8694C1836.42 84.9095 1810.84 94.2195 1793.71 113.986C1781.98 127.524 1773.29 146.896 1769.39 168.212C1768.33 174.003 1767.51 181.217 1767.85 181.765C1767.99 181.993 1777.74 182.179 1789.52 182.179C1808.07 182.179 1810.99 182.071 1811.26 181.371ZM1645.14 171.667C1645.14 163.182 1645.05 162.293 1643.86 159.669C1641.64 154.717 1638.08 152.54 1632.21 152.533C1628.73 152.528 1624.62 154.538 1622.9 157.086C1620.54 160.59 1620.19 162.52 1620.16 172.082L1620.14 181.121L1632.64 180.976L1645.14 180.832L1645.14 171.667L1645.14 171.667ZM1713.99 171.588C1713.99 165.904 1713.85 164.889 1712.96 163.906C1711.73 162.547 1709.6 162.438 1708.25 163.665C1707.39 164.441 1707.26 165.458 1707.26 171.507L1707.26 178.457L1710.62 178.297L1713.99 178.136L1713.99 171.588Z" stroke="url(#paint1_linear)" stroke-width="5"/>
<path d="M-395 183C-395 175.171 -394.788 179.484 -394.525 179.484C-393.775 179.484 -393.473 177.577 -394.057 176.531C-394.438 175.849 -394.381 175.454 -393.853 175.128C-393.324 174.801 -393.067 173.038 -392.939 168.858C-392.841 165.659 -392.538 162.812 -392.267 162.53C-391.561 161.797 -391.656 156.637 -392.389 155.902C-392.851 155.439 -392.131 154.339 -389.496 151.486L-385.987 147.688L-385.951 143.871C-385.931 141.772 -385.636 139.209 -385.296 138.175C-384.718 136.418 -384.626 136.359 -383.893 137.27C-383.2 138.132 -383.135 137.4 -383.33 130.92C-383.541 123.908 -383.5 123.546 -382.354 122.441C-381.408 121.528 -381.153 120.661 -381.131 118.283C-381.101 114.929 -380.076 112.868 -378.056 112.098C-375.719 111.208 -373.431 104.557 -374.66 102.227C-374.996 101.588 -374.982 101.015 -374.618 100.575C-374.311 100.205 -374.199 99.0452 -374.368 97.9983C-374.625 96.4111 -374.455 95.9206 -373.347 95.0467C-372.126 94.0839 -372.013 93.6172 -371.954 89.3025C-371.895 84.9564 -371.97 84.6064 -372.958 84.6064C-373.545 84.6064 -374.025 84.3638 -374.025 84.0673C-374.025 83.7708 -373.541 83.5282 -372.949 83.5282C-372.232 83.5282 -371.874 83.1688 -371.874 82.45C-371.874 80.9729 -370.914 81.0832 -370.701 82.5848C-370.572 83.4961 -370.228 83.7558 -369.319 83.629C-368.654 83.5363 -368.109 83.7183 -368.109 84.0334C-368.109 84.3485 -368.713 84.6064 -369.451 84.6064C-370.787 84.6064 -370.793 84.6279 -370.656 89.1508C-370.537 93.0775 -370.346 93.8794 -369.248 95.0505C-368.229 96.1381 -368.045 96.7653 -368.319 98.2264C-368.506 99.2278 -368.485 100.222 -368.271 100.436C-368.058 100.65 -367.874 102.495 -367.862 104.535C-367.845 107.412 -367.592 108.578 -366.737 109.726C-364.807 112.318 -363.912 112.566 -362.471 110.905C-360.842 109.028 -359.727 103.993 -360.584 102.387C-361.018 101.574 -361.027 101.05 -360.615 100.552C-360.283 100.151 -360.189 99.0964 -360.394 98.07C-360.694 96.5667 -360.531 96.1082 -359.361 95.1627C-358.233 94.2513 -357.955 93.5333 -357.883 91.3448C-357.688 85.4032 -357.816 84.6064 -358.966 84.6064C-359.557 84.6064 -360.041 84.3532 -360.041 84.0436C-360.041 83.7341 -359.618 83.5522 -359.1 83.6393C-358.472 83.7451 -358.102 83.3946 -357.987 82.5848C-357.893 81.9177 -357.607 81.3719 -357.352 81.3719C-357.098 81.3719 -356.811 81.9177 -356.716 82.5848C-356.587 83.4802 -356.226 83.7641 -355.334 83.6693C-354.669 83.5987 -354.125 83.7806 -354.125 84.0736C-354.125 84.3666 -354.731 84.6064 -355.472 84.6064C-356.817 84.6064 -356.818 84.6063 -356.624 89.1546C-356.454 93.1113 -356.247 93.92 -355.028 95.3719C-353.831 96.7983 -353.714 97.232 -354.224 98.3548C-354.67 99.3363 -354.659 99.8641 -354.181 100.442C-353.811 100.889 -353.689 101.807 -353.893 102.621C-354.087 103.394 -354.076 105.176 -353.869 106.581C-353.546 108.771 -353.072 109.525 -350.539 111.88C-347.666 114.549 -347.576 114.72 -347.289 118.079C-347.115 120.12 -346.638 121.942 -346.123 122.533C-345.421 123.338 -345.287 124.506 -345.436 128.534C-345.622 133.56 -345.123 135.098 -343.752 133.723C-343.423 133.393 -342.323 133.123 -341.308 133.123C-339.888 133.123 -339.044 133.568 -337.651 135.048L-335.839 136.974L-335.839 132.654C-335.839 130.279 -336.079 128.187 -336.371 128.006C-336.704 127.799 -336.626 127.234 -336.162 126.492C-335.755 125.84 -335.269 124.432 -335.083 123.363C-334.861 122.091 -334.075 120.809 -332.809 119.654C-331.052 118.051 -330.898 117.683 -331.128 115.632C-331.316 113.969 -331.123 113.054 -330.401 112.159C-329.861 111.491 -329.264 110.112 -329.074 109.096C-328.64 106.779 -328.01 106.727 -327.562 108.971C-327.373 109.92 -326.814 111.314 -326.319 112.07C-325.773 112.906 -325.473 114.295 -325.554 115.612C-325.66 117.341 -325.409 118.041 -324.311 119.074C-323.555 119.787 -322.833 120.266 -322.707 120.14C-322.581 120.014 -322.304 117.542 -322.092 114.647C-321.747 109.926 -321.812 109.266 -322.723 108.237C-323.584 107.264 -323.616 107.048 -322.931 106.813C-322.488 106.66 -321.351 105.762 -320.405 104.817L-318.685 103.099L-319.477 100.459C-320.562 96.8467 -320.068 95.2664 -316.921 92.283C-313.305 88.8539 -312.829 87.5193 -313.224 81.911C-313.402 79.3908 -313.42 77.2642 -313.265 77.1853C-311.442 76.2598 -311.368 76.0452 -312.315 74.4382C-313.759 71.9873 -313.506 70.3687 -311.407 68.6211L-309.563 67.0863L-309.39 60.9114C-309.219 54.7916 -309.229 54.7302 -310.562 54.0461C-311.896 53.3609 -311.897 53.3557 -310.679 53.3478C-309.914 53.343 -309.288 52.8978 -309.018 52.1667L-308.585 50.9935L-308.279 52.1667C-308.088 52.9003 -307.551 53.3398 -306.847 53.3398C-306.228 53.3398 -305.721 53.5411 -305.721 53.787C-305.721 54.0329 -306.266 54.2148 -306.931 54.1913C-308.083 54.1505 -308.145 54.3555 -308.212 58.4611C-308.334 65.839 -307.992 67.471 -306.064 68.712C-304.015 70.0314 -303.684 71.7349 -305.001 74.1855C-306.012 76.0661 -305.837 76.5242 -303.839 77.2324C-303.513 77.3477 -303.575 77.7552 -303.994 78.2643C-304.475 78.8494 -304.611 80.3121 -304.44 83.0688C-304.304 85.2487 -304.174 87.3415 -304.15 87.7196C-304.127 88.0977 -302.656 89.9716 -300.881 91.8839C-297.361 95.6761 -296.914 97.3045 -298.323 101.208C-298.983 103.039 -298.96 103.09 -296.426 105.39C-294.179 107.43 -293.977 107.782 -294.796 108.242C-295.508 108.641 -295.706 109.386 -295.629 111.376C-295.462 115.657 -294.858 120.185 -294.454 120.185C-294.247 120.185 -293.518 119.589 -292.835 118.861C-291.809 117.766 -291.652 117.168 -291.931 115.42C-292.177 113.876 -292.05 113.122 -291.461 112.632C-291.018 112.263 -290.319 110.84 -289.909 109.469C-289.313 107.48 -289.092 107.195 -288.809 108.056C-288.614 108.649 -287.983 110.105 -287.406 111.291C-286.829 112.477 -286.357 114.494 -286.358 115.774C-286.358 117.737 -286.065 118.381 -284.477 119.881C-283.442 120.86 -282.595 122.162 -282.595 122.775C-282.595 123.387 -282.313 124.572 -281.967 125.406C-281.606 126.28 -281.401 128.926 -281.483 131.641C-281.563 134.235 -281.501 136.358 -281.346 136.358C-281.191 136.358 -280.338 135.63 -279.451 134.74C-278.27 133.557 -277.331 133.123 -275.945 133.123C-274.905 133.123 -273.904 133.366 -273.721 133.662C-272.711 135.3 -272.315 133.809 -272.474 128.968C-272.632 124.137 -272.552 123.641 -271.435 122.523C-270.498 121.586 -270.217 120.668 -270.187 118.458C-270.138 114.738 -269.87 114.189 -267.047 112.028C-264.219 109.863 -263.028 107.042 -263.425 103.445C-263.574 102.094 -263.493 100.661 -263.246 100.26C-262.992 99.8474 -263.048 98.9754 -263.376 98.2542C-263.874 97.1599 -263.73 96.7305 -262.371 95.2397C-260.89 93.6147 -260.787 93.2195 -260.8 89.1885C-260.813 85.1314 -260.885 84.8657 -262.023 84.7036C-262.689 84.6089 -263.233 84.295 -263.233 84.0061C-263.233 83.7172 -262.931 83.5203 -262.561 83.5684C-261.032 83.7674 -260.544 83.4651 -260.536 82.3153C-260.529 81.1257 -260.515 81.1283 -259.834 82.45C-259.429 83.2364 -258.761 83.7318 -258.229 83.6393C-257.728 83.5522 -257.317 83.7172 -257.317 84.0061C-257.317 84.295 -257.862 84.6089 -258.528 84.7036C-259.684 84.8682 -259.732 85.0783 -259.623 89.4078C-259.519 93.5199 -259.374 94.0808 -258.053 95.4623C-256.8 96.7728 -256.68 97.1665 -257.191 98.289C-257.642 99.282 -257.615 99.8245 -257.075 100.563C-256.573 101.253 -256.527 101.789 -256.917 102.416C-258.134 104.37 -255.921 111.097 -253.791 111.916C-251.54 112.782 -248.863 107.393 -249.442 103.161C-249.608 101.945 -249.5 100.706 -249.202 100.407C-248.839 100.043 -248.876 99.3901 -249.317 98.4214C-249.911 97.114 -249.82 96.8145 -248.352 95.2397C-246.816 93.5933 -246.733 93.2726 -246.78 89.1885C-246.827 85.1441 -246.905 84.8651 -248.04 84.7036C-249.686 84.4692 -249.579 83.5282 -247.906 83.5282C-246.88 83.5282 -246.553 83.2405 -246.527 82.3153L-246.493 81.1024L-246.007 82.3153C-245.726 83.0153 -245.058 83.5282 -244.427 83.5282C-242.941 83.5282 -243.037 84.4889 -244.544 84.7036C-245.47 84.8353 -245.794 85.2852 -245.922 86.6162C-246.014 87.5735 -245.866 88.7577 -245.592 89.2479C-245.278 89.81 -245.308 90.7067 -245.673 91.676C-246.194 93.0575 -246.077 93.3946 -244.517 95.0071C-243.034 96.5411 -242.834 97.0583 -243.137 98.5749C-243.379 99.7898 -243.265 100.488 -242.775 100.792C-242.186 101.157 -242.183 101.386 -242.759 102.08C-243.25 102.673 -243.344 103.688 -243.075 105.484C-242.553 108.974 -241.461 110.893 -239.254 112.199C-236.821 113.637 -236.343 114.638 -236.343 118.288C-236.343 120.706 -236.1 121.555 -235.133 122.524C-233.98 123.678 -233.93 124.074 -234.088 130.947C-234.231 137.151 -234.146 138.069 -233.485 137.519C-232.86 136.999 -232.604 137.159 -232.12 138.371C-231.793 139.191 -231.536 140.832 -231.551 142.018C-231.613 147.136 -231.581 147.235 -228.697 150.585C-227.138 152.396 -225.699 153.952 -225.499 154.043C-225.3 154.134 -225.273 156.021 -225.44 158.238C-225.692 161.57 -225.593 162.382 -224.871 162.925C-224.175 163.447 -223.967 164.783 -223.85 169.467C-223.748 173.588 -223.502 175.42 -223.032 175.577C-222.513 175.749 -222.36 173.826 -222.36 167.13L-222.36 158.46L-220.233 158.46L-218.106 158.46L-217.947 154.821L-217.788 151.182L-215.771 151.015L-213.754 150.848L-213.754 147.683C-213.754 144.812 -213.642 144.503 -212.544 144.347C-211.275 144.166 -211.235 143.859 -211.719 138.02C-211.855 136.382 -211.694 136.128 -210.259 135.72C-209.371 135.468 -206.145 135.296 -203.09 135.338C-197.569 135.415 -197.531 135.407 -196.783 133.962C-196.235 132.903 -196.016 130.101 -195.978 123.651L-195.926 114.795L-193.642 114.795C-191.621 114.795 -191.145 114.538 -189.514 112.567C-188.5 111.341 -186.892 110.007 -185.94 109.602C-184.43 108.959 -183.97 108.98 -182.317 109.77C-181.275 110.268 -180.269 110.521 -180.081 110.332C-179.892 110.143 -179.575 108.414 -179.377 106.491C-178.976 102.611 -177.971 101.038 -175.553 100.505C-173.784 100.116 -171.038 101.349 -170.207 102.905C-169.903 103.476 -169.65 105.11 -169.645 106.538C-169.633 110.337 -169.105 110.934 -166.751 109.808C-164.216 108.597 -162.366 109.281 -159.776 112.387C-157.983 114.537 -157.526 114.795 -155.509 114.794L-153.25 114.793L-153.419 123.594C-153.563 131.062 -153.461 132.5 -152.747 133.094C-152.284 133.479 -151.905 134.129 -151.905 134.537C-151.905 135.125 -150.621 135.28 -145.755 135.28C-142.373 135.28 -138.958 135.527 -138.166 135.828C-136.887 136.316 -136.768 136.57 -137.099 138.119C-137.303 139.078 -137.512 140.832 -137.562 142.018C-137.641 143.877 -137.486 144.198 -136.443 144.347C-135.343 144.503 -135.233 144.811 -135.233 147.716L-135.233 150.913L-133.351 150.913L-131.468 150.913L-131.468 154.687L-131.468 158.46L-129.048 158.46L-126.628 158.46L-126.62 169.646C-126.614 175.798 -126.402 181.163 -126.146 181.569C-125.774 182.157 -125.01 181.913 -122.36 180.356C-119.408 178.622 -118.627 178.406 -115.305 178.406C-112.309 178.406 -111.569 178.242 -111.569 177.58C-111.569 177.126 -111.206 176.615 -110.762 176.445C-110.103 176.191 -109.956 174.868 -109.956 169.209C-109.956 164.938 -110.205 161.736 -110.607 160.852C-111.149 159.659 -111.117 159.317 -110.418 158.805C-109.846 158.385 -109.712 157.846 -109.998 157.112C-110.764 155.145 -110.543 154.687 -108.832 154.687L-107.17 154.687L-107.336 151.048C-107.427 149.046 -107.342 147.152 -107.146 146.837C-106.951 146.523 -106.741 144.522 -106.678 142.39C-106.616 140.258 -106.371 138.514 -106.134 138.514C-105.502 138.514 -104.997 141.767 -105.204 144.5C-105.361 146.57 -105.248 146.87 -104.308 146.87C-103.569 146.87 -103.175 146.449 -103.049 145.522C-102.948 144.781 -102.568 143.811 -102.204 143.366C-100.317 141.061 -100.225 138.89 -100.397 100.779C-100.543 68.7311 -100.69 62.8452 -101.418 60.0785C-101.885 58.2996 -102.243 55.762 -102.212 54.4395C-102.16 52.1444 -102.084 52.0339 -100.544 52.0136C-99.0095 51.9934 -98.9389 51.8931 -99.1067 49.9708C-99.2038 48.859 -99.0723 47.9493 -98.8143 47.9493C-98.5564 47.9493 -98.3854 45.4628 -98.4344 42.4237C-98.5003 38.3387 -98.7723 36.4063 -99.4778 35.0114C-100.792 32.414 -101.886 31.2379 -102.99 31.2379C-103.922 31.2379 -104.577 30.218 -104.577 28.7679C-104.577 27.7111 -102.998 27.8099 -101.718 28.9468C-100.83 29.7351 -100.611 29.7623 -100.386 29.1122C-100.237 28.6843 -99.5576 27.7746 -98.8752 27.0907C-97.3821 25.5941 -95.085 25.4795 -92.8103 26.7881C-91.2381 27.6924 -91.1454 27.689 -90.4243 26.7005C-89.9611 26.0657 -89.3353 25.8022 -88.7894 26.0121C-87.7023 26.4303 -87.62 28.4668 -88.674 28.8722C-89.097 29.0349 -89.6895 29.8763 -89.9906 30.742C-90.2916 31.6076 -90.7926 32.3158 -91.1038 32.3158C-91.4149 32.3158 -91.6696 32.8172 -91.6696 33.43C-91.6696 34.0428 -92.2747 35.3392 -93.0142 36.311C-94.079 37.7103 -94.3587 38.7069 -94.3587 41.1014C-94.3587 42.7643 -94.6425 44.7493 -94.9895 45.5125C-95.472 46.574 -95.472 47.0488 -94.9895 47.5325C-94.6425 47.8802 -94.3587 49.1039 -94.3587 50.2518C-94.3587 52.2112 -94.2683 52.3283 -92.8797 52.1655C-91.5082 52.0048 -91.3875 52.1489 -91.2194 54.1485C-91.0321 56.3752 -91.9299 61.5235 -92.7927 63.1707C-93.0742 63.7079 -93.2803 79.6716 -93.2766 100.637C-93.2696 139.508 -93.2664 139.561 -90.634 144.848C-90.0065 146.108 -89.2568 147.139 -88.9679 147.139C-88.4985 147.139 -88.1493 143.749 -88.4191 141.811C-88.5899 140.584 -87.923 138.514 -87.3568 138.514C-87.0599 138.514 -86.8292 140.242 -86.8292 142.467C-86.8292 144.642 -86.6477 146.603 -86.4259 146.826C-86.204 147.048 -86.0225 148.847 -86.0225 150.824L-86.0225 154.417L-84.2313 154.589C-82.7946 154.727 -82.514 154.94 -82.8133 155.667C-83.6534 157.707 -83.7214 158.592 -83.0688 158.996C-82.5315 159.329 -82.5147 159.806 -82.9918 161.178C-83.3276 162.143 -83.6023 165.904 -83.6023 169.534C-83.6023 174.903 -83.4519 176.192 -82.7956 176.444C-82.3519 176.615 -81.9888 177.126 -81.9888 177.58C-81.9888 178.242 -81.2487 178.406 -78.2477 178.406C-75.0576 178.406 -74.1037 178.644 -71.7703 180.023C-70.2652 180.912 -68.8243 181.64 -68.5682 181.64C-68.3122 181.64 -67.823 179.881 -67.4812 177.732C-66.3242 170.455 -62.755 157.099 -59.9475 149.54C-48.0172 117.419 -29.7351 94.8209 -5.07569 81.7134C25.8868 65.2555 69.5244 65.0085 101.424 81.1105C106.732 83.7896 116.324 90.3985 121.989 95.2799C130.8 102.871 141.257 116.244 147.823 128.317C154.834 141.21 161.518 159.822 163.841 172.92C164.454 176.382 165.119 179.385 165.317 179.593C165.515 179.801 165.677 174.746 165.677 168.359L165.677 156.748L171.223 153.905C174.273 152.341 177.005 150.825 177.294 150.536C177.627 150.202 177.818 134.514 177.816 107.739C177.81 58.1332 178.07 51.8689 180.395 45.1055C186.189 28.2557 198.19 14.7952 216.008 5.16183C218.547 3.78923 220.786 2.82801 220.983 3.02579C221.18 3.22357 221.342 4.59127 221.342 6.06514L221.342 8.7449L224.243 8.40317L227.144 8.06141L227.86 11.4286C228.42 14.0622 228.638 27.3047 228.858 72.2075L229.14 129.619L233.981 129.935C237.746 130.181 239.447 130.572 241.639 131.694L244.457 133.136L244.597 157.253L244.737 181.371L246.216 181.541L247.695 181.712L247.695 171.541C247.695 165.665 247.916 161.149 248.219 160.846C248.507 160.557 248.809 156.446 248.891 151.709L249.04 143.096L250.59 143.07C251.632 143.053 252.543 142.539 253.366 141.504L254.592 139.964L264.795 140.273C270.742 140.453 275.204 140.375 275.492 140.086C275.793 139.784 276.701 140.117 277.811 140.939C278.891 141.737 280.361 142.288 281.413 142.288L283.191 142.288L283.191 160.886L283.191 179.484L290.183 179.484L297.174 179.484L297.184 177.193C297.189 175.933 297.249 163.258 297.318 149.026C297.387 134.795 297.252 122.769 297.019 122.303C296.712 121.689 296.971 121.284 297.96 120.832C298.711 120.489 299.326 119.869 299.326 119.455C299.326 119.04 299.689 118.398 300.132 118.029C300.678 117.575 300.939 116.356 300.939 114.255C300.939 111.295 301.016 111.12 302.601 110.462C304.023 109.871 304.23 109.545 304.032 108.196C303.855 106.987 304.094 106.427 305.059 105.794C305.751 105.339 306.317 104.51 306.317 103.951C306.317 103.179 306.709 102.935 307.948 102.935C309.764 102.935 310.568 101.745 309.567 100.537C309.077 99.9454 309.085 99.4837 309.601 98.5222C309.969 97.8361 310.564 96.3045 310.923 95.1185L311.577 92.9622L311.933 94.5794C312.129 95.4689 312.687 97.0024 313.173 97.9872C313.893 99.4445 313.935 99.9752 313.396 100.839C312.553 102.192 313.015 102.935 314.699 102.935C315.618 102.935 316.181 103.348 316.536 104.283C316.817 105.024 317.412 105.631 317.857 105.631C318.605 105.631 319.42 107.457 319.195 108.63C318.96 109.853 319.314 110.388 320.57 110.704C321.797 111.012 321.914 111.297 321.914 113.959C321.914 116.966 323.511 120.463 325.05 120.826C325.629 120.962 325.753 124.451 325.703 139.188L325.64 157.382L328.349 157.382L331.057 157.382L331.057 154.108L331.057 150.835L334.072 150.975C336.439 151.085 337.196 150.919 337.594 150.205C337.974 149.525 338.843 149.296 341.034 149.296L343.965 149.296L343.965 147.409L343.965 145.522L348.23 145.522C352.108 145.522 352.511 145.622 352.667 146.622C352.762 147.226 353.02 147.712 353.242 147.7C353.464 147.688 354.504 147.678 355.553 147.678L357.46 147.678L357.382 134.362C357.312 122.511 357.399 121.012 358.177 120.738C359.591 120.241 360.637 117.579 360.637 114.477C360.637 111.812 360.762 111.523 362.251 110.752C363.577 110.064 363.864 109.58 363.864 108.029C363.864 106.513 364.128 106.042 365.209 105.63C366.032 105.317 366.553 104.695 366.553 104.026C366.553 103.178 366.905 102.935 368.135 102.935C370.056 102.935 370.572 102.25 369.702 100.853C369.171 100.002 369.218 99.548 369.953 98.4246C370.449 97.6648 370.859 96.4886 370.864 95.8111C370.869 95.1335 371.107 94.2154 371.394 93.7706C371.807 93.1295 371.917 93.2412 371.927 94.3097C371.933 95.0509 372.3 96.3522 372.742 97.2014C373.697 99.0381 373.765 100.343 372.946 101.163C372.044 102.067 372.875 102.935 374.642 102.935C375.86 102.935 376.288 103.231 376.543 104.252C376.744 105.053 377.327 105.633 378.033 105.734C378.968 105.868 379.223 106.32 379.352 108.074C379.472 109.709 379.805 110.377 380.696 110.769C381.653 111.19 381.933 111.86 382.15 114.256C382.437 117.425 383.745 120.395 385.078 120.908C385.769 121.174 385.917 123.104 386.039 133.453L386.184 145.685L389.249 145.776L392.315 145.867L392.476 143.943L392.638 142.018L396.938 141.858C402.727 141.643 403.663 141.92 403.663 143.849C403.663 145.924 404.472 146.457 407.965 146.681L410.923 146.87L411.075 140.859L411.227 134.848L413.101 134.902C414.461 134.94 415.202 134.629 415.803 133.77C416.776 132.377 417.782 132.257 418.744 133.42C419.192 133.961 420.117 134.199 421.365 134.094C423.219 133.938 423.3 133.844 423.459 131.641L423.624 129.35L428.299 129.356C430.87 129.361 433.872 129.51 434.969 129.692L436.963 130.023L437.12 133.836C437.268 137.443 437.364 137.699 438.89 138.557C439.777 139.056 442.105 139.602 444.063 139.771L447.622 140.078L448.456 137.948C449.114 136.271 449.572 135.819 450.616 135.819C451.489 135.819 452.037 135.451 452.222 134.741C452.377 134.148 452.889 133.662 453.361 133.662C453.999 133.662 454.218 133.124 454.218 131.55C454.218 130.389 454.365 129.054 454.544 128.585C454.951 127.523 457.226 127.461 457.624 128.502C457.985 129.444 463.054 129.334 464.022 128.364C464.368 128.017 465.597 127.733 466.752 127.733C468.389 127.733 469.108 127.412 470.006 126.282C470.64 125.484 471.29 124.332 471.45 123.721C471.859 122.162 474.105 121.908 474.488 123.377C474.928 125.064 476.806 124.848 476.806 123.111L476.806 121.724L481.243 121.987C485.396 122.233 488.326 122.586 491.193 123.187C492.307 123.42 492.403 123.737 492.403 127.172C492.403 129.224 492.602 131.027 492.845 131.177C493.088 131.328 496.173 131.617 499.702 131.82C503.231 132.023 506.541 132.408 507.059 132.676C507.941 133.131 508 135.483 508 170.473L508 183M4.25713 181.371C4.51307 180.702 5.95153 180.562 12.5647 180.562C16.9636 180.562 24.9578 180.403 30.3296 180.207L40.0966 179.853L40.0966 178.387C40.0966 177.58 40.4441 176.631 40.8688 176.278C41.2935 175.925 41.8011 174.905 41.9968 174.012C42.2721 172.756 42.0818 172.099 41.1572 171.112L39.9617 169.837L41.3737 167.421C43.2205 164.263 43.183 163.068 41.2112 162.25C39.3529 161.478 37.6077 159.697 38.164 159.139C38.3792 158.924 39.4946 159.289 40.6426 159.951C43.0161 161.32 43.3235 161.391 43.3235 160.563C43.3235 160.237 44.0496 159.291 44.937 158.46C45.8244 157.629 46.5504 156.561 46.5504 156.087C46.5504 155.092 45.9431 154.972 45.113 155.804C44.3558 156.563 41.0488 156.225 40.7655 155.36C40.6441 154.99 40.9196 154.686 41.3776 154.686C41.8357 154.686 43.0374 153.959 44.0481 153.069C46.107 151.257 48.6417 150.93 50.0079 152.299C51.061 153.355 51.0753 154.186 50.0634 155.527C49.0489 156.871 49.045 157.694 50.0472 158.864C53.8308 163.283 54.6177 164.368 54.6177 165.164C54.6177 165.667 54.8793 166.568 55.1991 167.167C56.1337 168.917 55.1705 169.112 53.8387 167.441C52.128 165.296 51.8091 166.538 52.803 171.477C53.3399 174.144 53.943 175.683 54.6471 176.18C55.2226 176.587 55.6933 177.477 55.6933 178.157C55.6933 179.749 55.8443 179.786 61.5645 179.581C66.0458 179.421 66.3965 179.326 66.5517 178.234C66.6645 177.439 67.2854 176.891 68.4665 176.542C70.4417 175.959 70.5442 175.555 69.4077 172.829C68.249 170.049 68.3952 168.975 70.2145 166.898C71.4004 165.544 71.8324 164.504 71.845 162.971L71.8622 160.886L72.9786 162.386C74.2799 164.135 75.3068 163.688 75.8676 161.128L76.2116 159.559L81.146 159.858C90.4331 160.42 91.025 160.555 92.7321 162.504C93.5902 163.484 94.3807 164.55 94.4889 164.874C94.6998 165.505 101.911 167.461 110.748 169.284C117.549 170.687 135.291 171.441 135.291 170.327C135.291 168.343 132.178 156.121 129.911 149.209C124.64 133.134 117.546 121.208 106.827 110.404C93.2606 96.7311 78.6591 89.9279 58.4601 87.8694C29.4176 84.9095 3.84103 94.2195 -13.2877 113.986C-25.0188 127.524 -33.7081 146.896 -37.6103 168.212C-38.6703 174.003 -39.4925 181.217 -39.1547 181.765C-39.0143 181.993 -29.2588 182.179 -17.4759 182.179C1.07111 182.179 3.98913 182.071 4.25713 181.371ZM-161.857 171.667C-161.857 163.182 -161.954 162.293 -163.135 159.669C-165.364 154.717 -168.922 152.54 -174.791 152.533C-178.273 152.528 -182.378 154.538 -184.097 157.086C-186.462 160.59 -186.815 162.52 -186.84 172.082L-186.864 181.121L-174.359 180.976L-161.855 180.832L-161.855 171.667L-161.857 171.667ZM-93.014 171.588C-93.014 165.904 -93.1492 164.889 -94.0385 163.906C-95.2672 162.547 -97.4003 162.438 -98.7531 163.665C-99.6091 164.441 -99.7367 165.458 -99.7367 171.507L-99.7367 178.457L-96.3753 178.297L-93.014 178.136L-93.014 171.588Z" stroke="url(#paint2_linear)" stroke-width="5"/>
<defs>
<linearGradient id="paint0_linear" x1="508" y1="93.1978" x2="1411" y2="93.1978" gradientUnits="userSpaceOnUse">
<stop stop-color="#1A2D57"/>
<stop offset="1" stop-color="#3667A1"/>
</linearGradient>
<linearGradient id="paint1_linear" x1="1412" y1="93.1978" x2="2315" y2="93.1978" gradientUnits="userSpaceOnUse">
<stop stop-color="#3667A1"/>
<stop offset="1" stop-color="#1A2D57"/>
</linearGradient>
<linearGradient id="paint2_linear" x1="-395" y1="93.1978" x2="508" y2="93.1978" gradientUnits="userSpaceOnUse">
<stop stop-color="#3667A1"/>
<stop offset="1" stop-color="#1A2D57"/>
</linearGradient>
</defs>
</svg>
