<svg width="39" height="40" viewBox="0 0 39 40" fill="none" xmlns="http://www.w3.org/2000/svg">
<path d="M28.275 36.5139C21.6406 36.5053 15.2804 33.8659 10.5891 29.1747C5.89792 24.4835 3.2586 18.1233 3.25 11.4889C3.25 9.50636 4.03754 7.60507 5.43938 6.20323C6.84121 4.8014 8.74251 4.01386 10.725 4.01386C11.1448 4.01066 11.5639 4.04876 11.9762 4.12761C12.3749 4.1866 12.7668 4.28457 13.1462 4.42011C13.4132 4.51376 13.651 4.67545 13.8362 4.8892C14.0215 5.10295 14.1477 5.36135 14.2025 5.63886L16.4287 15.3889C16.4888 15.6535 16.4815 15.929 16.4077 16.1901C16.3339 16.4513 16.1959 16.6898 16.0062 16.8839C15.795 17.1114 15.7787 17.1276 13.78 18.1676C15.3806 21.679 18.1889 24.4989 21.6937 26.1139C22.75 24.0989 22.7662 24.0826 22.9937 23.8714C23.1878 23.6817 23.4263 23.5437 23.6875 23.4699C23.9486 23.3961 24.2241 23.3889 24.4887 23.4489L34.2387 25.6751C34.5074 25.7374 34.7557 25.8671 34.9604 26.0519C35.1651 26.2367 35.3194 26.4705 35.4087 26.7314C35.5459 27.1171 35.6492 27.514 35.7175 27.9176C35.7829 28.326 35.8155 28.739 35.815 29.1526C35.785 31.1266 34.9754 33.0086 33.5627 34.3878C32.1501 35.7669 30.2492 36.5313 28.275 36.5139ZM10.725 7.26386C9.60578 7.26814 8.53362 7.71464 7.7422 8.50606C6.95079 9.29748 6.50428 10.3696 6.5 11.4889C6.5043 17.2626 8.79983 22.7987 12.8825 26.8814C16.9652 30.964 22.5012 33.2596 28.275 33.2639C29.3942 33.2596 30.4664 32.8131 31.2578 32.0217C32.0492 31.2302 32.4957 30.1581 32.5 29.0389V28.5026L24.96 26.7639L24.4887 27.6576C23.7575 29.0714 23.2212 30.0951 21.8562 29.5426C19.1634 28.5788 16.7191 27.0272 14.7009 25.0005C12.6828 22.9739 11.1414 20.5232 10.1887 17.8264C9.60375 16.5589 10.7087 15.9739 12.1062 15.2426L13 14.8039L11.2612 7.26386H10.725Z" fill="url(#paint0_linear)"/>
<defs>
<linearGradient id="paint0_linear" x1="19.4366" y1="36.5142" x2="19.4366" y2="3.29144" gradientUnits="userSpaceOnUse">
<stop stop-color="#1A2D57"/>
<stop offset="1" stop-color="#3667A1"/>
</linearGradient>
</defs>
</svg>
