<svg width="50" height="58" viewBox="0 0 50 58" fill="none" xmlns="http://www.w3.org/2000/svg">
<path d="M24.9962 21.0297C21.0211 21.0297 17.813 24.3381 17.813 28.4375C17.813 32.5369 21.0211 35.8453 24.9962 35.8453C28.9713 35.8453 32.1795 32.5369 32.1795 28.4375C32.1795 24.3381 28.9713 21.0297 24.9962 21.0297ZM24.9962 33.252C22.4255 33.252 20.3277 31.0886 20.3277 28.4375C20.3277 25.7864 22.4255 23.623 24.9962 23.623C27.5669 23.623 29.6648 25.7864 29.6648 28.4375C29.6648 31.0886 27.5669 33.252 24.9962 33.252ZM32.4736 18.9998C31.5455 18.9998 30.796 19.7728 30.796 20.7299C30.796 21.687 31.5455 22.4599 32.4736 22.4599C33.4018 22.4599 34.1513 21.6906 34.1513 20.7299C34.1515 20.5026 34.1083 20.2775 34.0241 20.0675C33.9399 19.8575 33.8163 19.6666 33.6605 19.5059C33.5047 19.3452 33.3196 19.2178 33.116 19.1309C32.9123 19.0441 32.694 18.9995 32.4736 18.9998ZM38.9984 28.4375C38.9984 26.4438 39.0159 24.4681 38.9074 22.478C38.7988 20.1664 38.2875 18.1149 36.6484 16.4246C35.0058 14.7307 33.02 14.2069 30.7785 14.095C28.8453 13.983 26.9295 14.0011 24.9997 14.0011C23.0665 14.0011 21.1507 13.983 19.2209 14.095C16.9795 14.2069 14.9902 14.7343 13.3511 16.4246C11.7085 18.1185 11.2007 20.1664 11.0921 22.478C10.9835 24.4717 11.001 26.4474 11.001 28.4375C11.001 30.4276 10.9835 32.4069 11.0921 34.397C11.2007 36.7086 11.712 38.7601 13.3511 40.4504C14.9937 42.1443 16.9795 42.6681 19.2209 42.78C21.1542 42.892 23.07 42.8739 24.9997 42.8739C26.933 42.8739 28.8488 42.892 30.7785 42.78C33.02 42.6681 35.0093 42.1407 36.6484 40.4504C38.291 38.7565 38.7988 36.7086 38.9074 34.397C39.0195 32.4069 38.9984 30.4312 38.9984 28.4375ZM35.9164 36.9542C35.6607 37.6115 35.3525 38.1027 34.8587 38.6084C34.3649 39.1176 33.8921 39.4355 33.2547 39.6991C31.4125 40.454 27.0381 40.2843 24.9962 40.2843C22.9544 40.2843 18.5765 40.454 16.7343 39.7028C16.0969 39.4391 15.6206 39.1213 15.1303 38.612C14.6364 38.1027 14.3282 37.6151 14.0726 36.9578C13.3441 35.0543 13.5087 30.5432 13.5087 28.4375C13.5087 26.3318 13.3441 21.817 14.0726 19.9172C14.3282 19.2599 14.6364 18.7687 15.1303 18.263C15.6241 17.7574 16.0969 17.4359 16.7343 17.1722C18.5765 16.421 22.9544 16.5907 24.9962 16.5907C27.0381 16.5907 31.416 16.421 33.2582 17.1722C33.8956 17.4359 34.3719 17.7538 34.8622 18.263C35.356 18.7723 35.6642 19.2599 35.9199 19.9172C36.6484 21.817 36.4838 26.3318 36.4838 28.4375C36.4838 30.5432 36.6484 35.0543 35.9164 36.9542Z" fill="white"/>
<path d="M48.5 18.5172V42C48.5 45.5899 45.5899 48.5 42 48.5H8C4.41015 48.5 1.5 45.5899 1.5 42V18.5172C1.5 15.8696 3.10583 13.4866 5.55975 12.4927L22.5597 5.6068C24.1248 4.97287 25.8752 4.97287 27.4402 5.6068L44.4402 12.4927C46.8942 13.4866 48.5 15.8696 48.5 18.5172Z" stroke="white" stroke-width="3"/>
</svg>
