<svg width="1920" height="422" viewBox="0 0 1920 422" fill="none" xmlns="http://www.w3.org/2000/svg">
<rect width="1920" height="100" fill="url(#paint0_linear)"/>
<path d="M508 420C508 412.172 508.212 416.484 508.475 416.484C509.225 416.484 509.527 414.578 508.943 413.532C508.562 412.85 508.619 412.455 509.147 412.128C509.676 411.801 509.933 410.038 510.061 405.858C510.159 402.66 510.462 399.812 510.733 399.53C511.439 398.798 511.344 393.637 510.611 392.903C510.149 392.439 510.869 391.34 513.504 388.487L517.013 384.688L517.049 380.872C517.069 378.772 517.364 376.209 517.704 375.175C518.282 373.418 518.374 373.359 519.107 374.27C519.8 375.133 519.865 374.4 519.67 367.92C519.459 360.908 519.5 360.547 520.645 359.442C521.592 358.528 521.847 357.661 521.869 355.283C521.899 351.93 522.924 349.869 524.944 349.099C527.281 348.208 529.569 341.558 528.34 339.227C528.004 338.589 528.018 338.016 528.382 337.576C528.689 337.205 528.801 336.046 528.632 334.999C528.375 333.412 528.545 332.921 529.653 332.047C530.874 331.084 530.987 330.618 531.046 326.303C531.105 321.957 531.03 321.607 530.042 321.607C529.455 321.607 528.975 321.364 528.975 321.068C528.975 320.771 529.459 320.529 530.051 320.529C530.768 320.529 531.126 320.169 531.126 319.451C531.126 317.973 532.086 318.084 532.299 319.585C532.428 320.497 532.772 320.756 533.681 320.63C534.346 320.537 534.891 320.719 534.891 321.034C534.891 321.349 534.287 321.607 533.549 321.607C532.213 321.607 532.207 321.628 532.344 326.151C532.463 330.078 532.654 330.88 533.752 332.051C534.771 333.139 534.955 333.766 534.681 335.227C534.494 336.228 534.515 337.223 534.729 337.436C534.942 337.65 535.126 339.495 535.138 341.536C535.155 344.412 535.408 345.579 536.263 346.727C538.193 349.319 539.088 349.566 540.529 347.906C542.158 346.028 543.273 340.994 542.416 339.388C541.982 338.575 541.973 338.05 542.385 337.552C542.717 337.151 542.811 336.097 542.606 335.07C542.306 333.567 542.469 333.109 543.639 332.163C544.767 331.252 545.045 330.534 545.117 328.345C545.312 322.404 545.184 321.607 544.034 321.607C543.443 321.607 542.959 321.354 542.959 321.044C542.959 320.735 543.382 320.553 543.9 320.64C544.528 320.746 544.898 320.395 545.013 319.585C545.107 318.918 545.393 318.372 545.648 318.372C545.902 318.372 546.189 318.918 546.284 319.585C546.413 320.481 546.774 320.765 547.666 320.67C548.331 320.599 548.875 320.781 548.875 321.074C548.875 321.367 548.269 321.607 547.528 321.607C546.183 321.607 546.182 321.607 546.376 326.155C546.546 330.112 546.753 330.92 547.972 332.372C549.169 333.799 549.286 334.232 548.776 335.355C548.33 336.337 548.341 336.865 548.819 337.442C549.189 337.889 549.311 338.808 549.107 339.621C548.913 340.395 548.924 342.177 549.131 343.581C549.454 345.771 549.928 346.525 552.461 348.88C555.334 351.549 555.424 351.721 555.711 355.079C555.885 357.12 556.362 358.943 556.877 359.533C557.579 360.339 557.713 361.506 557.564 365.535C557.377 370.56 557.877 372.098 559.248 370.724C559.577 370.394 560.677 370.124 561.692 370.124C563.112 370.124 563.956 370.568 565.349 372.049L567.161 373.974V369.655C567.161 367.279 566.921 365.187 566.629 365.006C566.296 364.8 566.374 364.234 566.838 363.492C567.245 362.84 567.731 361.432 567.917 360.363C568.139 359.091 568.925 357.81 570.191 356.655C571.948 355.052 572.102 354.684 571.872 352.632C571.684 350.969 571.877 350.054 572.599 349.159C573.139 348.491 573.736 347.113 573.926 346.096C574.36 343.779 574.99 343.727 575.438 345.972C575.627 346.92 576.186 348.314 576.681 349.071C577.227 349.907 577.527 351.295 577.446 352.613C577.34 354.342 577.591 355.041 578.689 356.075C579.445 356.787 580.167 357.267 580.293 357.14C580.419 357.014 580.696 354.543 580.908 351.648C581.253 346.926 581.188 346.266 580.277 345.238C579.416 344.265 579.384 344.048 580.069 343.813C580.512 343.661 581.649 342.763 582.595 341.818L584.315 340.099L583.522 337.46C582.438 333.847 582.932 332.267 586.079 329.284C589.695 325.854 590.171 324.52 589.776 318.911C589.598 316.391 589.58 314.265 589.735 314.186C591.558 313.26 591.632 313.046 590.685 311.439C589.241 308.988 589.494 307.369 591.593 305.622L593.437 304.087L593.61 297.912C593.781 291.792 593.771 291.731 592.438 291.047C591.104 290.361 591.103 290.356 592.321 290.348C593.086 290.343 593.712 289.898 593.982 289.167L594.415 287.994L594.721 289.167C594.912 289.901 595.449 290.34 596.153 290.34C596.772 290.34 597.279 290.542 597.279 290.787C597.279 291.033 596.734 291.215 596.069 291.192C594.917 291.151 594.855 291.356 594.788 295.462C594.666 302.84 595.008 304.471 596.936 305.713C598.985 307.032 599.316 308.735 597.999 311.186C596.988 313.067 597.163 313.525 599.161 314.233C599.487 314.348 599.425 314.756 599.006 315.265C598.525 315.85 598.389 317.313 598.56 320.069C598.696 322.249 598.826 324.342 598.85 324.72C598.873 325.098 600.344 326.972 602.119 328.884C605.639 332.677 606.086 334.305 604.677 338.209C604.017 340.04 604.04 340.091 606.574 342.39C608.821 344.43 609.023 344.783 608.204 345.242C607.492 345.642 607.294 346.387 607.371 348.376C607.538 352.657 608.142 357.186 608.546 357.186C608.753 357.186 609.482 356.59 610.165 355.861C611.191 354.766 611.348 354.169 611.069 352.42C610.823 350.876 610.95 350.122 611.539 349.633C611.982 349.263 612.681 347.84 613.091 346.47C613.687 344.481 613.908 344.196 614.191 345.057C614.386 345.65 615.017 347.105 615.594 348.291C616.171 349.477 616.643 351.495 616.642 352.775C616.642 354.737 616.935 355.381 618.523 356.881C619.558 357.86 620.405 359.162 620.405 359.775C620.405 360.388 620.687 361.572 621.033 362.407C621.394 363.28 621.599 365.926 621.517 368.641C621.437 371.236 621.499 373.358 621.654 373.358C621.809 373.358 622.662 372.63 623.549 371.741C624.73 370.557 625.669 370.124 627.055 370.124C628.095 370.124 629.096 370.366 629.279 370.663C630.289 372.3 630.685 370.81 630.526 365.968C630.368 361.137 630.448 360.641 631.565 359.524C632.502 358.587 632.783 357.668 632.813 355.458C632.862 351.738 633.13 351.189 635.953 349.028C638.781 346.863 639.972 344.042 639.575 340.445C639.426 339.095 639.507 337.661 639.754 337.26C640.008 336.848 639.952 335.976 639.624 335.255C639.126 334.16 639.27 333.731 640.629 332.24C642.11 330.615 642.213 330.22 642.2 326.189C642.187 322.132 642.115 321.866 640.977 321.704C640.311 321.609 639.767 321.296 639.767 321.007C639.767 320.718 640.069 320.521 640.439 320.569C641.968 320.768 642.456 320.466 642.464 319.316C642.471 318.126 642.485 318.129 643.166 319.451C643.571 320.237 644.239 320.732 644.771 320.64C645.272 320.553 645.683 320.718 645.683 321.007C645.683 321.296 645.138 321.609 644.472 321.704C643.316 321.869 643.268 322.079 643.377 326.408C643.481 330.52 643.626 331.081 644.947 332.463C646.2 333.773 646.32 334.167 645.809 335.289C645.358 336.282 645.385 336.825 645.925 337.564C646.427 338.253 646.473 338.79 646.083 339.416C644.866 341.37 647.079 348.097 649.209 348.917C651.46 349.782 654.137 344.393 653.558 340.162C653.392 338.946 653.5 337.706 653.798 337.408C654.161 337.043 654.124 336.391 653.683 335.422C653.089 334.114 653.18 333.815 654.648 332.24C656.184 330.594 656.267 330.273 656.22 326.189C656.173 322.145 656.095 321.866 654.96 321.704C653.314 321.47 653.421 320.529 655.094 320.529C656.12 320.529 656.447 320.241 656.473 319.316L656.507 318.103L656.993 319.316C657.274 320.016 657.942 320.529 658.573 320.529C660.059 320.529 659.963 321.489 658.456 321.704C657.53 321.836 657.206 322.286 657.078 323.617C656.986 324.574 657.134 325.758 657.408 326.248C657.722 326.81 657.692 327.707 657.327 328.677C656.806 330.058 656.923 330.395 658.483 332.008C659.966 333.542 660.166 334.059 659.863 335.575C659.621 336.79 659.735 337.489 660.225 337.793C660.814 338.157 660.817 338.386 660.241 339.081C659.75 339.674 659.656 340.688 659.925 342.484C660.447 345.975 661.539 347.894 663.746 349.199C666.179 350.638 666.657 351.639 666.657 355.288C666.657 357.707 666.9 358.556 667.867 359.524C669.02 360.678 669.07 361.074 668.912 367.947C668.769 374.152 668.854 375.07 669.515 374.52C670.14 374 670.396 374.159 670.88 375.371C671.207 376.191 671.464 377.833 671.449 379.019C671.387 384.137 671.419 384.235 674.303 387.585C675.862 389.396 677.301 390.953 677.501 391.043C677.7 391.134 677.727 393.022 677.56 395.239C677.308 398.57 677.407 399.383 678.129 399.925C678.825 400.448 679.033 401.783 679.15 406.468C679.252 410.589 679.498 412.421 679.968 412.577C680.487 412.75 680.64 410.827 680.64 404.131V395.46H682.767H684.894L685.053 391.822L685.212 388.183L687.229 388.016L689.246 387.848V384.684C689.246 381.813 689.358 381.503 690.456 381.347C691.725 381.166 691.765 380.86 691.281 375.02C691.145 373.382 691.306 373.128 692.741 372.72C693.629 372.468 696.855 372.296 699.91 372.339C705.431 372.415 705.469 372.407 706.217 370.962C706.765 369.903 706.984 367.102 707.022 360.652L707.074 351.795H709.358C711.379 351.795 711.855 351.539 713.486 349.567C714.5 348.342 716.108 347.008 717.06 346.603C718.57 345.959 719.03 345.981 720.683 346.771C721.725 347.269 722.731 347.521 722.919 347.332C723.108 347.143 723.425 345.415 723.623 343.491C724.024 339.612 725.029 338.038 727.447 337.506C729.216 337.117 731.962 338.349 732.793 339.906C733.097 340.476 733.35 342.111 733.355 343.539C733.367 347.338 733.895 347.934 736.249 346.809C738.784 345.597 740.634 346.281 743.224 349.388C745.017 351.537 745.474 351.795 747.491 351.794L749.75 351.794L749.581 360.594C749.437 368.062 749.539 369.501 750.253 370.095C750.716 370.48 751.095 371.129 751.095 371.538C751.095 372.125 752.379 372.28 757.245 372.28C760.627 372.28 764.042 372.527 764.834 372.829C766.113 373.316 766.232 373.571 765.901 375.12C765.697 376.078 765.488 377.833 765.438 379.019C765.359 380.878 765.514 381.199 766.557 381.347C767.657 381.504 767.767 381.812 767.767 384.717V387.913H769.649H771.532V391.687V395.461H773.952H776.372L776.38 406.646C776.386 412.799 776.598 418.164 776.854 418.569C777.226 419.158 777.99 418.913 780.64 417.356C783.592 415.622 784.373 415.406 787.695 415.406C790.691 415.406 791.431 415.243 791.431 414.581C791.431 414.127 791.794 413.616 792.238 413.445C792.897 413.191 793.044 411.868 793.044 406.21C793.044 401.939 792.795 398.736 792.393 397.853C791.851 396.66 791.883 396.318 792.582 395.805C793.154 395.386 793.288 394.847 793.002 394.112C792.236 392.145 792.457 391.687 794.168 391.687H795.83L795.664 388.048C795.573 386.047 795.658 384.152 795.854 383.838C796.049 383.524 796.259 381.522 796.322 379.391C796.384 377.259 796.629 375.515 796.866 375.515C797.498 375.515 798.003 378.767 797.796 381.5C797.639 383.571 797.752 383.87 798.692 383.87C799.431 383.87 799.825 383.45 799.951 382.523C800.052 381.781 800.432 380.811 800.796 380.366C802.683 378.062 802.775 375.891 802.603 337.779C802.457 305.732 802.31 299.846 801.582 297.079C801.115 295.3 800.757 292.762 800.788 291.44C800.84 289.145 800.916 289.034 802.456 289.014C803.991 288.994 804.061 288.894 803.893 286.971C803.796 285.859 803.928 284.95 804.186 284.95C804.444 284.95 804.615 282.463 804.566 279.424C804.5 275.339 804.228 273.407 803.522 272.012C802.208 269.414 801.114 268.238 800.01 268.238C799.078 268.238 798.423 267.218 798.423 265.768C798.423 264.712 800.002 264.81 801.282 265.947C802.17 266.736 802.389 266.763 802.614 266.113C802.763 265.685 803.442 264.775 804.125 264.091C805.618 262.595 807.915 262.48 810.19 263.789C811.762 264.693 811.855 264.69 812.576 263.701C813.039 263.066 813.665 262.803 814.211 263.013C815.298 263.431 815.38 265.467 814.326 265.873C813.903 266.035 813.311 266.877 813.009 267.743C812.708 268.608 812.207 269.316 811.896 269.316C811.585 269.316 811.33 269.818 811.33 270.43C811.33 271.043 810.725 272.34 809.986 273.312C808.921 274.711 808.641 275.707 808.641 278.102C808.641 279.765 808.357 281.75 808.011 282.513C807.528 283.574 807.528 284.049 808.011 284.533C808.357 284.881 808.641 286.104 808.641 287.252C808.641 289.212 808.732 289.329 810.12 289.166C811.492 289.005 811.613 289.149 811.781 291.149C811.968 293.376 811.07 298.524 810.207 300.171C809.926 300.708 809.72 316.672 809.723 337.637C809.73 376.509 809.734 376.561 812.366 381.849C812.993 383.109 813.743 384.14 814.032 384.14C814.502 384.14 814.851 380.749 814.581 378.811C814.41 377.584 815.077 375.515 815.643 375.515C815.94 375.515 816.171 377.243 816.171 379.468C816.171 381.642 816.352 383.603 816.574 383.826C816.796 384.049 816.978 385.848 816.978 387.824V391.417L818.769 391.589C820.205 391.728 820.486 391.941 820.187 392.668C819.347 394.707 819.279 395.592 819.931 395.997C820.469 396.33 820.485 396.807 820.008 398.178C819.672 399.144 819.398 402.904 819.398 406.534C819.398 411.904 819.548 413.192 820.204 413.445C820.648 413.616 821.011 414.127 821.011 414.581C821.011 415.243 821.751 415.406 824.752 415.406C827.942 415.406 828.896 415.644 831.23 417.023C832.735 417.913 834.176 418.641 834.432 418.641C834.688 418.641 835.177 416.882 835.519 414.732C836.676 407.456 840.245 394.1 843.053 386.541C854.983 354.42 873.265 331.821 897.924 318.714C928.887 302.256 972.524 302.009 1004.42 318.111C1009.73 320.79 1019.32 327.399 1024.99 332.28C1033.8 339.871 1044.26 353.245 1050.82 365.318C1057.83 378.21 1064.52 396.823 1066.84 409.921C1067.45 413.382 1068.12 416.385 1068.32 416.593C1068.52 416.801 1068.68 411.746 1068.68 405.36V393.749L1074.22 390.906C1077.27 389.342 1080.01 387.826 1080.29 387.536C1080.63 387.203 1080.82 371.514 1080.82 344.74C1080.81 295.134 1081.07 288.869 1083.4 282.106C1089.19 265.256 1101.19 251.796 1119.01 242.162C1121.55 240.79 1123.79 239.829 1123.98 240.026C1124.18 240.224 1124.34 241.592 1124.34 243.066V245.745L1127.24 245.404L1130.14 245.062L1130.86 248.429C1131.42 251.063 1131.64 264.305 1131.86 309.208L1132.14 366.62L1136.98 366.936C1140.75 367.182 1142.45 367.572 1144.64 368.694L1147.46 370.136L1147.6 394.254L1147.74 418.371L1149.22 418.542L1150.7 418.712V408.542C1150.7 402.665 1150.92 398.15 1151.22 397.847C1151.51 397.558 1151.81 393.446 1151.89 388.709L1152.04 380.097L1153.59 380.071C1154.63 380.053 1155.54 379.539 1156.37 378.504L1157.59 376.964L1167.79 377.273C1173.74 377.453 1178.2 377.375 1178.49 377.086C1178.79 376.784 1179.7 377.118 1180.81 377.939C1181.89 378.738 1183.36 379.288 1184.41 379.288H1186.19V397.886V416.485H1193.18H1200.17L1200.18 414.193C1200.19 412.933 1200.25 400.258 1200.32 386.027C1200.39 371.795 1200.25 359.77 1200.02 359.304C1199.71 358.69 1199.97 358.284 1200.96 357.833C1201.71 357.49 1202.33 356.87 1202.33 356.455C1202.33 356.04 1202.69 355.399 1203.13 355.03C1203.68 354.575 1203.94 353.356 1203.94 351.256C1203.94 348.296 1204.02 348.121 1205.6 347.463C1207.02 346.872 1207.23 346.545 1207.03 345.196C1206.86 343.987 1207.09 343.428 1208.06 342.794C1208.75 342.34 1209.32 341.511 1209.32 340.952C1209.32 340.18 1209.71 339.936 1210.95 339.936C1212.76 339.936 1213.57 338.746 1212.57 337.537C1212.08 336.946 1212.08 336.484 1212.6 335.523C1212.97 334.837 1213.56 333.305 1213.92 332.119L1214.58 329.963L1214.93 331.58C1215.13 332.469 1215.69 334.003 1216.17 334.988C1216.89 336.445 1216.93 336.976 1216.4 337.84C1215.55 339.193 1216.01 339.936 1217.7 339.936C1218.62 339.936 1219.18 340.349 1219.54 341.283C1219.82 342.025 1220.41 342.631 1220.86 342.631C1221.61 342.631 1222.42 344.458 1222.19 345.631C1221.96 346.853 1222.31 347.388 1223.57 347.704C1224.8 348.013 1224.91 348.297 1224.91 350.96C1224.91 353.966 1226.51 357.464 1228.05 357.826C1228.63 357.963 1228.75 361.452 1228.7 376.189L1228.64 394.382H1231.35H1234.06V391.109V387.835L1237.07 387.975C1239.44 388.085 1240.2 387.92 1240.59 387.206C1240.97 386.526 1241.84 386.296 1244.03 386.296H1246.96V384.409V382.523H1251.23C1255.11 382.523 1255.51 382.622 1255.67 383.622C1255.76 384.227 1256.02 384.712 1256.24 384.7C1256.46 384.688 1257.5 384.679 1258.55 384.679H1260.46L1260.38 371.363C1260.31 359.511 1260.4 358.012 1261.18 357.739C1262.59 357.242 1263.64 354.579 1263.64 351.478C1263.64 348.813 1263.76 348.523 1265.25 347.752C1266.58 347.065 1266.86 346.58 1266.86 345.029C1266.86 343.513 1267.13 343.043 1268.21 342.631C1269.03 342.317 1269.55 341.695 1269.55 341.027C1269.55 340.178 1269.91 339.935 1271.13 339.935C1273.06 339.935 1273.57 339.25 1272.7 337.854C1272.17 337.002 1272.22 336.549 1272.95 335.425C1273.45 334.665 1273.86 333.489 1273.86 332.812C1273.87 332.134 1274.11 331.216 1274.39 330.771C1274.81 330.13 1274.92 330.242 1274.93 331.31C1274.93 332.051 1275.3 333.353 1275.74 334.202C1276.7 336.039 1276.76 337.343 1275.95 338.163C1275.04 339.068 1275.87 339.935 1277.64 339.935C1278.86 339.935 1279.29 340.232 1279.54 341.252C1279.74 342.054 1280.33 342.634 1281.03 342.735C1281.97 342.868 1282.22 343.32 1282.35 345.074C1282.47 346.709 1282.81 347.378 1283.7 347.77C1284.65 348.191 1284.93 348.861 1285.15 351.256C1285.44 354.426 1286.74 357.395 1288.08 357.908C1288.77 358.174 1288.92 360.105 1289.04 370.454L1289.18 382.685L1292.25 382.777L1295.32 382.868L1295.48 380.943L1295.64 379.019L1299.94 378.859C1305.73 378.644 1306.66 378.921 1306.66 380.85C1306.66 382.925 1307.47 383.458 1310.97 383.681L1313.92 383.87L1314.08 377.859L1314.23 371.849L1316.1 371.902C1317.46 371.941 1318.2 371.63 1318.8 370.77C1319.78 369.377 1320.78 369.258 1321.74 370.421C1322.19 370.961 1323.12 371.199 1324.36 371.095C1326.22 370.939 1326.3 370.845 1326.46 368.641L1326.62 366.35L1331.3 366.356C1333.87 366.362 1336.87 366.511 1337.97 366.693L1339.96 367.023L1340.12 370.837C1340.27 374.444 1340.36 374.699 1341.89 375.557C1342.78 376.056 1345.11 376.603 1347.06 376.771L1350.62 377.078L1351.46 374.949C1352.11 373.271 1352.57 372.819 1353.62 372.819C1354.49 372.819 1355.04 372.451 1355.22 371.741C1355.38 371.148 1355.89 370.663 1356.36 370.663C1357 370.663 1357.22 370.124 1357.22 368.551C1357.22 367.389 1357.36 366.055 1357.54 365.586C1357.95 364.523 1360.23 364.462 1360.62 365.503C1360.98 366.445 1366.05 366.335 1367.02 365.364C1367.37 365.017 1368.6 364.733 1369.75 364.733C1371.39 364.733 1372.11 364.412 1373.01 363.282C1373.64 362.485 1374.29 361.332 1374.45 360.722C1374.86 359.163 1377.1 358.908 1377.49 360.378C1377.93 362.065 1379.81 361.849 1379.81 360.111V358.724L1384.24 358.987C1388.4 359.233 1391.33 359.587 1394.19 360.187C1395.31 360.421 1395.4 360.737 1395.4 364.172C1395.4 366.225 1395.6 368.027 1395.84 368.178C1396.09 368.328 1399.17 368.617 1402.7 368.821C1406.23 369.024 1409.54 369.409 1410.06 369.676C1410.94 370.132 1411 372.483 1411 407.474V420M907.257 418.371C907.513 417.703 908.952 417.563 915.565 417.563C919.964 417.563 927.958 417.403 933.33 417.208L943.097 416.853V415.387C943.097 414.581 943.444 413.632 943.869 413.279C944.293 412.925 944.801 411.906 944.997 411.012C945.272 409.756 945.082 409.099 944.157 408.113L942.962 406.837L944.374 404.422C946.22 401.263 946.183 400.069 944.211 399.25C942.353 398.478 940.608 396.697 941.164 396.14C941.379 395.924 942.495 396.289 943.643 396.952C946.016 398.321 946.323 398.391 946.323 397.563C946.323 397.238 947.05 396.291 947.937 395.46C948.824 394.629 949.55 393.562 949.55 393.088C949.55 392.092 948.943 391.972 948.113 392.804C947.356 393.563 944.049 393.226 943.766 392.361C943.644 391.99 943.92 391.687 944.378 391.687C944.836 391.687 946.037 390.959 947.048 390.07C949.107 388.258 951.642 387.93 953.008 389.299C954.061 390.355 954.075 391.186 953.063 392.527C952.049 393.872 952.045 394.694 953.047 395.865C956.831 400.283 957.618 401.368 957.618 402.165C957.618 402.667 957.879 403.568 958.199 404.167C959.134 405.918 958.171 406.112 956.839 404.442C955.128 402.296 954.809 403.539 955.803 408.477C956.34 411.145 956.943 412.683 957.647 413.181C958.223 413.588 958.693 414.477 958.693 415.158C958.693 416.749 958.844 416.786 964.565 416.582C969.046 416.422 969.396 416.327 969.552 415.234C969.665 414.44 970.285 413.891 971.467 413.543C973.442 412.96 973.544 412.555 972.408 409.829C971.249 407.05 971.395 405.975 973.214 403.898C974.4 402.545 974.832 401.504 974.845 399.971L974.862 397.886L975.979 399.387C977.28 401.135 978.307 400.688 978.868 398.129L979.212 396.559L984.146 396.858C993.433 397.421 994.025 397.556 995.732 399.505C996.59 400.484 997.381 401.551 997.489 401.874C997.7 402.506 1004.91 404.462 1013.75 406.285C1020.55 407.688 1038.29 408.441 1038.29 407.327C1038.29 405.343 1035.18 393.122 1032.91 386.21C1027.64 370.134 1020.55 358.208 1009.83 347.405C996.261 333.732 981.659 326.928 961.46 324.87C932.418 321.91 906.841 331.22 889.712 350.987C877.981 364.524 869.292 383.897 865.39 405.213C864.33 411.003 863.508 418.218 863.845 418.766C863.986 418.993 873.741 419.18 885.524 419.18C904.071 419.18 906.989 419.071 907.257 418.371ZM741.143 408.668C741.143 400.182 741.046 399.294 739.865 396.669C737.636 391.718 734.078 389.54 728.209 389.534C724.727 389.528 720.622 391.538 718.903 394.086C716.538 397.591 716.185 399.52 716.16 409.082L716.136 418.122L728.641 417.977L741.145 417.832V408.668H741.143ZM809.986 408.588C809.986 402.904 809.851 401.89 808.962 400.906C807.733 399.547 805.6 399.438 804.247 400.665C803.391 401.442 803.263 402.459 803.263 408.508V415.458L806.625 415.297L809.986 415.137V408.588Z" stroke="url(#paint1_linear)" stroke-width="5"/>
<path d="M1412 420.001C1412 412.172 1412.21 416.484 1412.48 416.484C1413.22 416.484 1413.53 414.578 1412.94 413.532C1412.56 412.85 1412.62 412.455 1413.15 412.128C1413.68 411.801 1413.93 410.038 1414.06 405.858C1414.16 402.66 1414.46 399.812 1414.73 399.53C1415.44 398.798 1415.34 393.637 1414.61 392.903C1414.15 392.439 1414.87 391.34 1417.5 388.487L1421.01 384.688L1421.05 380.872C1421.07 378.772 1421.36 376.209 1421.7 375.175C1422.28 373.418 1422.37 373.359 1423.11 374.27C1423.8 375.133 1423.87 374.4 1423.67 367.92C1423.46 360.908 1423.5 360.547 1424.65 359.442C1425.59 358.528 1425.85 357.661 1425.87 355.283C1425.9 351.93 1426.92 349.869 1428.94 349.099C1431.28 348.208 1433.57 341.558 1432.34 339.227C1432 338.589 1432.02 338.016 1432.38 337.576C1432.69 337.205 1432.8 336.046 1432.63 334.999C1432.37 333.412 1432.54 332.921 1433.65 332.047C1434.87 331.084 1434.99 330.618 1435.05 326.303C1435.1 321.957 1435.03 321.607 1434.04 321.607C1433.46 321.607 1432.97 321.364 1432.97 321.068C1432.97 320.771 1433.46 320.529 1434.05 320.529C1434.77 320.529 1435.13 320.169 1435.13 319.451C1435.13 317.973 1436.09 318.084 1436.3 319.585C1436.43 320.497 1436.77 320.756 1437.68 320.63C1438.35 320.537 1438.89 320.719 1438.89 321.034C1438.89 321.349 1438.29 321.607 1437.55 321.607C1436.21 321.607 1436.21 321.628 1436.34 326.151C1436.46 330.078 1436.65 330.88 1437.75 332.051C1438.77 333.139 1438.95 333.766 1438.68 335.227C1438.49 336.228 1438.52 337.223 1438.73 337.436C1438.94 337.65 1439.13 339.495 1439.14 341.536C1439.15 344.412 1439.41 345.579 1440.26 346.727C1442.19 349.319 1443.09 349.566 1444.53 347.906C1446.16 346.028 1447.27 340.994 1446.42 339.388C1445.98 338.575 1445.97 338.05 1446.39 337.552C1446.72 337.151 1446.81 336.097 1446.61 335.071C1446.31 333.567 1446.47 333.109 1447.64 332.163C1448.77 331.252 1449.04 330.534 1449.12 328.345C1449.31 322.404 1449.18 321.607 1448.03 321.607C1447.44 321.607 1446.96 321.354 1446.96 321.044C1446.96 320.735 1447.38 320.553 1447.9 320.64C1448.53 320.746 1448.9 320.395 1449.01 319.585C1449.11 318.918 1449.39 318.372 1449.65 318.372C1449.9 318.372 1450.19 318.918 1450.28 319.585C1450.41 320.481 1450.77 320.765 1451.67 320.67C1452.33 320.599 1452.87 320.781 1452.87 321.074C1452.87 321.367 1452.27 321.607 1451.53 321.607C1450.18 321.607 1450.18 321.607 1450.38 326.155C1450.55 330.112 1450.75 330.92 1451.97 332.372C1453.17 333.799 1453.29 334.232 1452.78 335.355C1452.33 336.337 1452.34 336.865 1452.82 337.442C1453.19 337.889 1453.31 338.808 1453.11 339.621C1452.91 340.395 1452.92 342.177 1453.13 343.581C1453.45 345.771 1453.93 346.525 1456.46 348.88C1459.33 351.549 1459.42 351.721 1459.71 355.079C1459.88 357.12 1460.36 358.943 1460.88 359.533C1461.58 360.339 1461.71 361.506 1461.56 365.535C1461.38 370.56 1461.88 372.098 1463.25 370.724C1463.58 370.394 1464.68 370.124 1465.69 370.124C1467.11 370.124 1467.96 370.568 1469.35 372.049L1471.16 373.974L1471.16 369.655C1471.16 367.279 1470.92 365.187 1470.63 365.006C1470.3 364.8 1470.37 364.234 1470.84 363.492C1471.24 362.84 1471.73 361.432 1471.92 360.363C1472.14 359.091 1472.92 357.81 1474.19 356.655C1475.95 355.052 1476.1 354.684 1475.87 352.632C1475.68 350.969 1475.88 350.054 1476.6 349.159C1477.14 348.491 1477.74 347.113 1477.93 346.096C1478.36 343.779 1478.99 343.727 1479.44 345.972C1479.63 346.92 1480.19 348.314 1480.68 349.071C1481.23 349.907 1481.53 351.295 1481.45 352.613C1481.34 354.342 1481.59 355.041 1482.69 356.075C1483.45 356.787 1484.17 357.267 1484.29 357.14C1484.42 357.014 1484.7 354.543 1484.91 351.648C1485.25 346.926 1485.19 346.267 1484.28 345.238C1483.42 344.265 1483.38 344.048 1484.07 343.813C1484.51 343.661 1485.65 342.763 1486.6 341.818L1488.32 340.099L1487.52 337.46C1486.44 333.847 1486.93 332.267 1490.08 329.284C1493.7 325.854 1494.17 324.52 1493.78 318.911C1493.6 316.391 1493.58 314.265 1493.74 314.186C1495.56 313.26 1495.63 313.046 1494.69 311.439C1493.24 308.988 1493.49 307.369 1495.59 305.622L1497.44 304.087L1497.61 297.912C1497.78 291.792 1497.77 291.731 1496.44 291.047C1495.1 290.361 1495.1 290.356 1496.32 290.348C1497.09 290.343 1497.71 289.898 1497.98 289.167L1498.41 287.994L1498.72 289.167C1498.91 289.901 1499.45 290.34 1500.15 290.34C1500.77 290.34 1501.28 290.542 1501.28 290.787C1501.28 291.033 1500.73 291.215 1500.07 291.192C1498.92 291.151 1498.86 291.356 1498.79 295.462C1498.67 302.84 1499.01 304.471 1500.94 305.713C1502.98 307.032 1503.32 308.735 1502 311.186C1500.99 313.067 1501.16 313.525 1503.16 314.233C1503.49 314.348 1503.43 314.756 1503.01 315.265C1502.52 315.85 1502.39 317.313 1502.56 320.069C1502.7 322.249 1502.83 324.342 1502.85 324.72C1502.87 325.098 1504.34 326.972 1506.12 328.884C1509.64 332.677 1510.09 334.305 1508.68 338.209C1508.02 340.04 1508.04 340.091 1510.57 342.39C1512.82 344.43 1513.02 344.783 1512.2 345.242C1511.49 345.642 1511.29 346.387 1511.37 348.376C1511.54 352.657 1512.14 357.186 1512.55 357.186C1512.75 357.186 1513.48 356.59 1514.17 355.861C1515.19 354.766 1515.35 354.169 1515.07 352.42C1514.82 350.876 1514.95 350.122 1515.54 349.633C1515.98 349.263 1516.68 347.84 1517.09 346.47C1517.69 344.481 1517.91 344.196 1518.19 345.057C1518.39 345.65 1519.02 347.105 1519.59 348.291C1520.17 349.477 1520.64 351.495 1520.64 352.775C1520.64 354.737 1520.94 355.381 1522.52 356.881C1523.56 357.86 1524.4 359.162 1524.4 359.775C1524.4 360.388 1524.69 361.572 1525.03 362.407C1525.39 363.28 1525.6 365.926 1525.52 368.641C1525.44 371.236 1525.5 373.358 1525.65 373.358C1525.81 373.358 1526.66 372.63 1527.55 371.741C1528.73 370.557 1529.67 370.124 1531.05 370.124C1532.1 370.124 1533.1 370.366 1533.28 370.663C1534.29 372.3 1534.68 370.81 1534.53 365.968C1534.37 361.137 1534.45 360.641 1535.56 359.524C1536.5 358.587 1536.78 357.668 1536.81 355.458C1536.86 351.738 1537.13 351.189 1539.95 349.028C1542.78 346.863 1543.97 344.042 1543.58 340.445C1543.43 339.095 1543.51 337.661 1543.75 337.26C1544.01 336.848 1543.95 335.976 1543.62 335.255C1543.13 334.16 1543.27 333.731 1544.63 332.24C1546.11 330.615 1546.21 330.22 1546.2 326.189C1546.19 322.132 1546.12 321.866 1544.98 321.704C1544.31 321.609 1543.77 321.296 1543.77 321.007C1543.77 320.718 1544.07 320.521 1544.44 320.569C1545.97 320.768 1546.46 320.466 1546.46 319.316C1546.47 318.126 1546.49 318.129 1547.17 319.451C1547.57 320.237 1548.24 320.732 1548.77 320.64C1549.27 320.553 1549.68 320.718 1549.68 321.007C1549.68 321.296 1549.14 321.609 1548.47 321.704C1547.32 321.869 1547.27 322.079 1547.38 326.408C1547.48 330.52 1547.63 331.081 1548.95 332.463C1550.2 333.773 1550.32 334.167 1549.81 335.289C1549.36 336.282 1549.39 336.825 1549.92 337.564C1550.43 338.253 1550.47 338.79 1550.08 339.416C1548.87 341.37 1551.08 348.097 1553.21 348.917C1555.46 349.782 1558.14 344.393 1557.56 340.162C1557.39 338.946 1557.5 337.706 1557.8 337.408C1558.16 337.043 1558.12 336.391 1557.68 335.422C1557.09 334.114 1557.18 333.815 1558.65 332.24C1560.18 330.594 1560.27 330.273 1560.22 326.189C1560.17 322.145 1560.09 321.866 1558.96 321.704C1557.31 321.47 1557.42 320.529 1559.09 320.529C1560.12 320.529 1560.45 320.241 1560.47 319.316L1560.51 318.103L1560.99 319.316C1561.27 320.016 1561.94 320.529 1562.57 320.529C1564.06 320.529 1563.96 321.489 1562.46 321.704C1561.53 321.836 1561.21 322.286 1561.08 323.617C1560.99 324.574 1561.13 325.758 1561.41 326.248C1561.72 326.81 1561.69 327.707 1561.33 328.677C1560.81 330.058 1560.92 330.395 1562.48 332.008C1563.97 333.542 1564.17 334.059 1563.86 335.575C1563.62 336.79 1563.73 337.489 1564.23 337.793C1564.81 338.157 1564.82 338.386 1564.24 339.081C1563.75 339.674 1563.66 340.688 1563.92 342.484C1564.45 345.975 1565.54 347.894 1567.75 349.199C1570.18 350.638 1570.66 351.639 1570.66 355.288C1570.66 357.707 1570.9 358.556 1571.87 359.524C1573.02 360.678 1573.07 361.074 1572.91 367.947C1572.77 374.152 1572.85 375.07 1573.52 374.52C1574.14 374 1574.4 374.159 1574.88 375.371C1575.21 376.191 1575.46 377.833 1575.45 379.019C1575.39 384.137 1575.42 384.236 1578.3 387.585C1579.86 389.396 1581.3 390.953 1581.5 391.043C1581.7 391.134 1581.73 393.022 1581.56 395.239C1581.31 398.57 1581.41 399.383 1582.13 399.925C1582.82 400.448 1583.03 401.783 1583.15 406.468C1583.25 410.589 1583.5 412.421 1583.97 412.577C1584.49 412.75 1584.64 410.827 1584.64 404.131L1584.64 395.46L1586.77 395.46L1588.89 395.46L1589.05 391.822L1589.21 388.183L1591.23 388.016L1593.25 387.848L1593.25 384.684C1593.25 381.813 1593.36 381.503 1594.46 381.347C1595.72 381.166 1595.76 380.86 1595.28 375.02C1595.14 373.382 1595.31 373.128 1596.74 372.72C1597.63 372.468 1600.85 372.296 1603.91 372.339C1609.43 372.415 1609.47 372.407 1610.22 370.962C1610.76 369.903 1610.98 367.102 1611.02 360.652L1611.07 351.795L1613.36 351.795C1615.38 351.795 1615.85 351.539 1617.49 349.567C1618.5 348.342 1620.11 347.008 1621.06 346.603C1622.57 345.959 1623.03 345.981 1624.68 346.771C1625.72 347.269 1626.73 347.521 1626.92 347.332C1627.11 347.143 1627.42 345.415 1627.62 343.491C1628.02 339.612 1629.03 338.038 1631.45 337.506C1633.22 337.117 1635.96 338.349 1636.79 339.906C1637.1 340.476 1637.35 342.111 1637.35 343.539C1637.37 347.338 1637.89 347.934 1640.25 346.809C1642.78 345.597 1644.63 346.281 1647.22 349.388C1649.02 351.537 1649.47 351.795 1651.49 351.794L1653.75 351.794L1653.58 360.594C1653.44 368.062 1653.54 369.501 1654.25 370.095C1654.72 370.48 1655.09 371.129 1655.09 371.538C1655.09 372.125 1656.38 372.28 1661.24 372.28C1664.63 372.28 1668.04 372.527 1668.83 372.829C1670.11 373.316 1670.23 373.571 1669.9 375.12C1669.7 376.078 1669.49 377.833 1669.44 379.019C1669.36 380.878 1669.51 381.199 1670.56 381.347C1671.66 381.504 1671.77 381.812 1671.77 384.717L1671.77 387.913L1673.65 387.913L1675.53 387.913L1675.53 391.687L1675.53 395.461L1677.95 395.461L1680.37 395.461L1680.38 406.646C1680.39 412.799 1680.6 418.164 1680.85 418.569C1681.23 419.158 1681.99 418.913 1684.64 417.356C1687.59 415.622 1688.37 415.406 1691.7 415.406C1694.69 415.406 1695.43 415.243 1695.43 414.581C1695.43 414.127 1695.79 413.616 1696.24 413.445C1696.9 413.192 1697.04 411.868 1697.04 406.21C1697.04 401.939 1696.8 398.736 1696.39 397.853C1695.85 396.66 1695.88 396.318 1696.58 395.805C1697.15 395.386 1697.29 394.847 1697 394.112C1696.24 392.145 1696.46 391.687 1698.17 391.687L1699.83 391.687L1699.66 388.048C1699.57 386.047 1699.66 384.152 1699.85 383.838C1700.05 383.524 1700.26 381.522 1700.32 379.391C1700.38 377.259 1700.63 375.515 1700.87 375.515C1701.5 375.515 1702 378.767 1701.8 381.5C1701.64 383.571 1701.75 383.87 1702.69 383.87C1703.43 383.87 1703.82 383.45 1703.95 382.523C1704.05 381.781 1704.43 380.811 1704.8 380.366C1706.68 378.062 1706.78 375.891 1706.6 337.779C1706.46 305.732 1706.31 299.846 1705.58 297.079C1705.11 295.3 1704.76 292.762 1704.79 291.44C1704.84 289.145 1704.92 289.034 1706.46 289.014C1707.99 288.994 1708.06 288.894 1707.89 286.971C1707.8 285.859 1707.93 284.95 1708.19 284.95C1708.44 284.95 1708.61 282.463 1708.57 279.424C1708.5 275.339 1708.23 273.407 1707.52 272.012C1706.21 269.414 1705.11 268.238 1704.01 268.238C1703.08 268.238 1702.42 267.218 1702.42 265.768C1702.42 264.712 1704 264.81 1705.28 265.947C1706.17 266.736 1706.39 266.763 1706.61 266.113C1706.76 265.685 1707.44 264.775 1708.12 264.091C1709.62 262.595 1711.91 262.48 1714.19 263.789C1715.76 264.693 1715.85 264.69 1716.58 263.701C1717.04 263.066 1717.66 262.803 1718.21 263.013C1719.3 263.431 1719.38 265.467 1718.33 265.873C1717.9 266.035 1717.31 266.877 1717.01 267.743C1716.71 268.608 1716.21 269.316 1715.9 269.316C1715.59 269.316 1715.33 269.818 1715.33 270.43C1715.33 271.043 1714.73 272.34 1713.99 273.311C1712.92 274.711 1712.64 275.707 1712.64 278.102C1712.64 279.765 1712.36 281.75 1712.01 282.513C1711.53 283.574 1711.53 284.049 1712.01 284.533C1712.36 284.881 1712.64 286.104 1712.64 287.252C1712.64 289.212 1712.73 289.329 1714.12 289.166C1715.49 289.005 1715.61 289.149 1715.78 291.149C1715.97 293.376 1715.07 298.524 1714.21 300.171C1713.93 300.708 1713.72 316.672 1713.72 337.637C1713.73 376.509 1713.73 376.561 1716.37 381.849C1716.99 383.109 1717.74 384.14 1718.03 384.14C1718.5 384.14 1718.85 380.749 1718.58 378.811C1718.41 377.584 1719.08 375.515 1719.64 375.515C1719.94 375.515 1720.17 377.243 1720.17 379.468C1720.17 381.642 1720.35 383.603 1720.57 383.826C1720.8 384.049 1720.98 385.848 1720.98 387.824L1720.98 391.417L1722.77 391.59C1724.21 391.728 1724.49 391.941 1724.19 392.668C1723.35 394.707 1723.28 395.592 1723.93 395.997C1724.47 396.33 1724.49 396.807 1724.01 398.178C1723.67 399.144 1723.4 402.904 1723.4 406.534C1723.4 411.904 1723.55 413.192 1724.2 413.445C1724.65 413.616 1725.01 414.127 1725.01 414.581C1725.01 415.243 1725.75 415.406 1728.75 415.406C1731.94 415.406 1732.9 415.644 1735.23 417.023C1736.73 417.913 1738.18 418.641 1738.43 418.641C1738.69 418.641 1739.18 416.882 1739.52 414.732C1740.68 407.456 1744.24 394.1 1747.05 386.541C1758.98 354.42 1777.26 331.821 1801.92 318.714C1832.89 302.256 1876.52 302.009 1908.42 318.111C1913.73 320.79 1923.32 327.399 1928.99 332.28C1937.8 339.871 1948.26 353.245 1954.82 365.318C1961.83 378.21 1968.52 396.823 1970.84 409.921C1971.45 413.382 1972.12 416.385 1972.32 416.593C1972.52 416.801 1972.68 411.746 1972.68 405.36L1972.68 393.749L1978.22 390.906C1981.27 389.342 1984.01 387.826 1984.29 387.536C1984.63 387.203 1984.82 371.514 1984.82 344.74C1984.81 295.134 1985.07 288.869 1987.4 282.106C1993.19 265.256 2005.19 251.796 2023.01 242.162C2025.55 240.79 2027.79 239.828 2027.98 240.026C2028.18 240.224 2028.34 241.592 2028.34 243.066L2028.34 245.745L2031.24 245.404L2034.14 245.062L2034.86 248.429C2035.42 251.063 2035.64 264.305 2035.86 309.208L2036.14 366.62L2040.98 366.936C2044.75 367.182 2046.45 367.572 2048.64 368.694L2051.46 370.136L2051.6 394.254L2051.74 418.371L2053.22 418.542L2054.7 418.712L2054.7 408.542C2054.7 402.665 2054.92 398.15 2055.22 397.847C2055.51 397.558 2055.81 393.446 2055.89 388.709L2056.04 380.097L2057.59 380.071C2058.63 380.053 2059.54 379.539 2060.37 378.504L2061.59 376.964L2071.79 377.273C2077.74 377.453 2082.2 377.375 2082.49 377.086C2082.79 376.784 2083.7 377.118 2084.81 377.939C2085.89 378.738 2087.36 379.288 2088.41 379.288L2090.19 379.288L2090.19 397.886L2090.19 416.485L2097.18 416.485L2104.17 416.485L2104.18 414.193C2104.19 412.933 2104.25 400.258 2104.32 386.027C2104.39 371.795 2104.25 359.77 2104.02 359.304C2103.71 358.69 2103.97 358.284 2104.96 357.833C2105.71 357.49 2106.33 356.87 2106.33 356.455C2106.33 356.04 2106.69 355.399 2107.13 355.03C2107.68 354.575 2107.94 353.356 2107.94 351.256C2107.94 348.296 2108.02 348.121 2109.6 347.463C2111.02 346.872 2111.23 346.545 2111.03 345.196C2110.86 343.987 2111.09 343.428 2112.06 342.794C2112.75 342.34 2113.32 341.511 2113.32 340.952C2113.32 340.18 2113.71 339.936 2114.95 339.936C2116.76 339.936 2117.57 338.746 2116.57 337.537C2116.08 336.946 2116.08 336.484 2116.6 335.523C2116.97 334.837 2117.56 333.305 2117.92 332.119L2118.58 329.963L2118.93 331.58C2119.13 332.469 2119.69 334.003 2120.17 334.988C2120.89 336.445 2120.93 336.976 2120.4 337.84C2119.55 339.193 2120.01 339.936 2121.7 339.936C2122.62 339.936 2123.18 340.349 2123.54 341.283C2123.82 342.025 2124.41 342.631 2124.86 342.631C2125.61 342.631 2126.42 344.458 2126.19 345.631C2125.96 346.853 2126.31 347.388 2127.57 347.704C2128.8 348.013 2128.91 348.297 2128.91 350.96C2128.91 353.966 2130.51 357.464 2132.05 357.826C2132.63 357.963 2132.75 361.452 2132.7 376.189L2132.64 394.382L2135.35 394.382L2138.06 394.382L2138.06 391.109L2138.06 387.835L2141.07 387.975C2143.44 388.085 2144.2 387.92 2144.59 387.206C2144.97 386.526 2145.84 386.296 2148.03 386.296L2150.96 386.296L2150.96 384.409L2150.96 382.523L2155.23 382.523C2159.11 382.523 2159.51 382.622 2159.67 383.622C2159.76 384.227 2160.02 384.712 2160.24 384.7C2160.46 384.688 2161.5 384.679 2162.55 384.679L2164.46 384.679L2164.38 371.363C2164.31 359.511 2164.4 358.012 2165.18 357.739C2166.59 357.242 2167.64 354.579 2167.64 351.478C2167.64 348.813 2167.76 348.523 2169.25 347.752C2170.58 347.065 2170.86 346.58 2170.86 345.029C2170.86 343.513 2171.13 343.043 2172.21 342.631C2173.03 342.317 2173.55 341.695 2173.55 341.027C2173.55 340.178 2173.91 339.935 2175.13 339.935C2177.06 339.935 2177.57 339.25 2176.7 337.854C2176.17 337.002 2176.22 336.549 2176.95 335.425C2177.45 334.665 2177.86 333.489 2177.86 332.812C2177.87 332.134 2178.11 331.216 2178.39 330.771C2178.81 330.13 2178.92 330.242 2178.93 331.31C2178.93 332.051 2179.3 333.353 2179.74 334.202C2180.7 336.039 2180.76 337.343 2179.95 338.163C2179.04 339.068 2179.87 339.935 2181.64 339.935C2182.86 339.935 2183.29 340.232 2183.54 341.252C2183.74 342.054 2184.33 342.634 2185.03 342.735C2185.97 342.868 2186.22 343.32 2186.35 345.074C2186.47 346.709 2186.81 347.378 2187.7 347.77C2188.65 348.191 2188.93 348.861 2189.15 351.256C2189.44 354.426 2190.74 357.395 2192.08 357.908C2192.77 358.174 2192.92 360.105 2193.04 370.454L2193.18 382.685L2196.25 382.777L2199.32 382.868L2199.48 380.943L2199.64 379.019L2203.94 378.859C2209.73 378.644 2210.66 378.921 2210.66 380.85C2210.66 382.925 2211.47 383.458 2214.97 383.681L2217.92 383.87L2218.08 377.859L2218.23 371.849L2220.1 371.902C2221.46 371.941 2222.2 371.63 2222.8 370.77C2223.78 369.377 2224.78 369.258 2225.74 370.421C2226.19 370.961 2227.12 371.199 2228.36 371.095C2230.22 370.939 2230.3 370.845 2230.46 368.641L2230.62 366.35L2235.3 366.356C2237.87 366.362 2240.87 366.511 2241.97 366.693L2243.96 367.023L2244.12 370.837C2244.27 374.444 2244.36 374.699 2245.89 375.557C2246.78 376.056 2249.11 376.603 2251.06 376.771L2254.62 377.078L2255.46 374.949C2256.11 373.271 2256.57 372.819 2257.62 372.819C2258.49 372.819 2259.04 372.451 2259.22 371.741C2259.38 371.148 2259.89 370.663 2260.36 370.663C2261 370.663 2261.22 370.124 2261.22 368.551C2261.22 367.389 2261.36 366.055 2261.54 365.586C2261.95 364.523 2264.23 364.462 2264.62 365.503C2264.98 366.445 2270.05 366.335 2271.02 365.364C2271.37 365.017 2272.6 364.733 2273.75 364.733C2275.39 364.733 2276.11 364.412 2277.01 363.282C2277.64 362.485 2278.29 361.332 2278.45 360.722C2278.86 359.163 2281.1 358.908 2281.49 360.378C2281.93 362.065 2283.81 361.849 2283.81 360.111L2283.81 358.724L2288.24 358.987C2292.4 359.233 2295.33 359.587 2298.19 360.187C2299.31 360.421 2299.4 360.737 2299.4 364.172C2299.4 366.225 2299.6 368.027 2299.84 368.178C2300.09 368.328 2303.17 368.617 2306.7 368.821C2310.23 369.024 2313.54 369.409 2314.06 369.676C2314.94 370.132 2315 372.483 2315 407.474L2315 420M1811.26 418.371C1811.51 417.703 1812.95 417.563 1819.56 417.563C1823.96 417.563 1831.96 417.403 1837.33 417.208L1847.1 416.853L1847.1 415.387C1847.1 414.581 1847.44 413.632 1847.87 413.279C1848.29 412.925 1848.8 411.906 1849 411.012C1849.27 409.756 1849.08 409.099 1848.16 408.113L1846.96 406.837L1848.37 404.422C1850.22 401.263 1850.18 400.069 1848.21 399.25C1846.35 398.478 1844.61 396.697 1845.16 396.14C1845.38 395.924 1846.49 396.289 1847.64 396.952C1850.02 398.321 1850.32 398.391 1850.32 397.563C1850.32 397.238 1851.05 396.291 1851.94 395.46C1852.82 394.629 1853.55 393.562 1853.55 393.088C1853.55 392.092 1852.94 391.972 1852.11 392.804C1851.36 393.563 1848.05 393.226 1847.77 392.361C1847.64 391.99 1847.92 391.687 1848.38 391.687C1848.84 391.687 1850.04 390.959 1851.05 390.07C1853.11 388.258 1855.64 387.93 1857.01 389.299C1858.06 390.355 1858.08 391.186 1857.06 392.527C1856.05 393.872 1856.04 394.694 1857.05 395.865C1860.83 400.283 1861.62 401.368 1861.62 402.165C1861.62 402.667 1861.88 403.568 1862.2 404.167C1863.13 405.918 1862.17 406.112 1860.84 404.442C1859.13 402.296 1858.81 403.539 1859.8 408.477C1860.34 411.145 1860.94 412.683 1861.65 413.181C1862.22 413.588 1862.69 414.477 1862.69 415.158C1862.69 416.749 1862.84 416.786 1868.56 416.582C1873.05 416.422 1873.4 416.327 1873.55 415.234C1873.66 414.44 1874.29 413.891 1875.47 413.543C1877.44 412.96 1877.54 412.555 1876.41 409.829C1875.25 407.05 1875.4 405.975 1877.21 403.898C1878.4 402.545 1878.83 401.504 1878.84 399.971L1878.86 397.886L1879.98 399.387C1881.28 401.135 1882.31 400.688 1882.87 398.129L1883.21 396.559L1888.15 396.858C1897.43 397.421 1898.03 397.556 1899.73 399.505C1900.59 400.484 1901.38 401.551 1901.49 401.874C1901.7 402.506 1908.91 404.462 1917.75 406.285C1924.55 407.688 1942.29 408.441 1942.29 407.328C1942.29 405.343 1939.18 393.122 1936.91 386.21C1931.64 370.134 1924.55 358.208 1913.83 347.405C1900.26 333.732 1885.66 326.928 1865.46 324.87C1836.42 321.91 1810.84 331.22 1793.71 350.987C1781.98 364.524 1773.29 383.897 1769.39 405.213C1768.33 411.003 1767.51 418.218 1767.85 418.766C1767.99 418.993 1777.74 419.18 1789.52 419.18C1808.07 419.18 1810.99 419.071 1811.26 418.371ZM1645.14 408.668C1645.14 400.182 1645.05 399.294 1643.86 396.669C1641.64 391.718 1638.08 389.54 1632.21 389.534C1628.73 389.528 1624.62 391.538 1622.9 394.086C1620.54 397.591 1620.19 399.52 1620.16 409.082L1620.14 418.122L1632.64 417.977L1645.14 417.832L1645.14 408.668L1645.14 408.668ZM1713.99 408.588C1713.99 402.904 1713.85 401.89 1712.96 400.906C1711.73 399.547 1709.6 399.438 1708.25 400.665C1707.39 401.442 1707.26 402.459 1707.26 408.508L1707.26 415.458L1710.62 415.297L1713.99 415.137L1713.99 408.588Z" stroke="url(#paint2_linear)" stroke-width="5"/>
<path d="M-395 420C-395 412.171 -394.788 416.484 -394.525 416.484C-393.775 416.484 -393.473 414.577 -394.057 413.531C-394.438 412.849 -394.381 412.454 -393.853 412.128C-393.324 411.801 -393.067 410.038 -392.939 405.858C-392.841 402.659 -392.538 399.812 -392.267 399.53C-391.561 398.797 -391.656 393.637 -392.389 392.902C-392.851 392.439 -392.131 391.339 -389.496 388.486L-385.987 384.688L-385.951 380.871C-385.931 378.772 -385.636 376.209 -385.296 375.175C-384.718 373.418 -384.626 373.359 -383.893 374.27C-383.2 375.132 -383.135 374.4 -383.33 367.92C-383.541 360.908 -383.5 360.546 -382.354 359.441C-381.408 358.528 -381.153 357.661 -381.131 355.283C-381.101 351.929 -380.076 349.868 -378.056 349.098C-375.719 348.208 -373.431 341.557 -374.66 339.227C-374.996 338.588 -374.982 338.015 -374.618 337.575C-374.311 337.205 -374.199 336.045 -374.368 334.998C-374.625 333.411 -374.455 332.921 -373.347 332.047C-372.126 331.084 -372.013 330.617 -371.954 326.303C-371.895 321.956 -371.97 321.606 -372.958 321.606C-373.545 321.606 -374.025 321.364 -374.025 321.067C-374.025 320.771 -373.541 320.528 -372.949 320.528C-372.232 320.528 -371.874 320.169 -371.874 319.45C-371.874 317.973 -370.914 318.083 -370.701 319.585C-370.572 320.496 -370.228 320.756 -369.319 320.629C-368.654 320.536 -368.109 320.718 -368.109 321.033C-368.109 321.348 -368.713 321.606 -369.451 321.606C-370.787 321.606 -370.793 321.628 -370.656 326.151C-370.537 330.078 -370.346 330.879 -369.248 332.05C-368.229 333.138 -368.045 333.765 -368.319 335.226C-368.506 336.228 -368.485 337.222 -368.271 337.436C-368.058 337.65 -367.874 339.495 -367.862 341.535C-367.845 344.412 -367.592 345.578 -366.737 346.726C-364.807 349.318 -363.912 349.566 -362.471 347.905C-360.842 346.028 -359.727 340.993 -360.584 339.387C-361.018 338.574 -361.027 338.05 -360.615 337.552C-360.283 337.151 -360.189 336.096 -360.394 335.07C-360.694 333.567 -360.531 333.108 -359.361 332.163C-358.233 331.251 -357.955 330.533 -357.883 328.345C-357.688 322.403 -357.816 321.606 -358.966 321.606C-359.557 321.606 -360.041 321.353 -360.041 321.044C-360.041 320.734 -359.618 320.552 -359.1 320.639C-358.472 320.745 -358.102 320.395 -357.987 319.585C-357.893 318.918 -357.607 318.372 -357.352 318.372C-357.098 318.372 -356.811 318.918 -356.716 319.585C-356.587 320.48 -356.226 320.764 -355.334 320.669C-354.669 320.599 -354.125 320.781 -354.125 321.074C-354.125 321.367 -354.731 321.606 -355.472 321.606C-356.817 321.606 -356.818 321.606 -356.624 326.155C-356.454 330.111 -356.247 330.92 -355.028 332.372C-353.831 333.798 -353.714 334.232 -354.224 335.355C-354.67 336.336 -354.659 336.864 -354.181 337.442C-353.811 337.889 -353.689 338.807 -353.893 339.621C-354.087 340.394 -354.076 342.176 -353.869 343.581C-353.546 345.771 -353.072 346.525 -350.539 348.88C-347.666 351.549 -347.576 351.72 -347.289 355.079C-347.115 357.12 -346.638 358.942 -346.123 359.533C-345.421 360.338 -345.287 361.506 -345.436 365.534C-345.622 370.56 -345.123 372.098 -343.752 370.723C-343.423 370.393 -342.323 370.123 -341.308 370.123C-339.888 370.123 -339.044 370.568 -337.651 372.048L-335.839 373.974L-335.839 369.654C-335.839 367.279 -336.079 365.187 -336.371 365.006C-336.704 364.799 -336.626 364.234 -336.162 363.492C-335.755 362.84 -335.269 361.432 -335.083 360.363C-334.861 359.091 -334.075 357.809 -332.809 356.654C-331.052 355.051 -330.898 354.683 -331.128 352.632C-331.316 350.969 -331.123 350.054 -330.401 349.159C-329.861 348.491 -329.264 347.112 -329.074 346.096C-328.64 343.779 -328.01 343.727 -327.562 345.971C-327.373 346.92 -326.814 348.314 -326.319 349.07C-325.773 349.906 -325.473 351.295 -325.554 352.612C-325.66 354.341 -325.409 355.041 -324.311 356.074C-323.555 356.787 -322.833 357.266 -322.707 357.14C-322.581 357.014 -322.304 354.542 -322.092 351.647C-321.747 346.926 -321.812 346.266 -322.723 345.237C-323.584 344.264 -323.616 344.048 -322.931 343.813C-322.488 343.66 -321.351 342.762 -320.405 341.817L-318.685 340.099L-319.477 337.459C-320.562 333.847 -320.068 332.266 -316.921 329.283C-313.305 325.854 -312.829 324.519 -313.224 318.911C-313.402 316.391 -313.42 314.264 -313.265 314.185C-311.442 313.26 -311.368 313.045 -312.315 311.438C-313.759 308.987 -313.506 307.369 -311.407 305.621L-309.563 304.086L-309.39 297.911C-309.219 291.792 -309.229 291.73 -310.562 291.046C-311.896 290.361 -311.897 290.356 -310.679 290.348C-309.914 290.343 -309.288 289.898 -309.018 289.167L-308.585 287.994L-308.279 289.167C-308.088 289.9 -307.551 290.34 -306.847 290.34C-306.228 290.34 -305.721 290.541 -305.721 290.787C-305.721 291.033 -306.266 291.215 -306.931 291.191C-308.083 291.151 -308.145 291.356 -308.212 295.461C-308.334 302.839 -307.992 304.471 -306.064 305.712C-304.015 307.031 -303.684 308.735 -305.001 311.186C-306.012 313.066 -305.837 313.524 -303.839 314.232C-303.513 314.348 -303.575 314.755 -303.994 315.264C-304.475 315.849 -304.611 317.312 -304.44 320.069C-304.304 322.249 -304.174 324.342 -304.15 324.72C-304.127 325.098 -302.656 326.972 -300.881 328.884C-297.361 332.676 -296.914 334.304 -298.323 338.208C-298.983 340.039 -298.96 340.09 -296.426 342.39C-294.179 344.43 -293.977 344.782 -294.796 345.242C-295.508 345.641 -295.706 346.386 -295.629 348.376C-295.462 352.657 -294.858 357.185 -294.454 357.185C-294.247 357.185 -293.518 356.589 -292.835 355.861C-291.809 354.766 -291.652 354.168 -291.931 352.42C-292.177 350.876 -292.05 350.122 -291.461 349.632C-291.018 349.263 -290.319 347.84 -289.909 346.469C-289.313 344.48 -289.092 344.195 -288.809 345.056C-288.614 345.649 -287.983 347.105 -287.406 348.291C-286.829 349.477 -286.357 351.494 -286.358 352.774C-286.358 354.737 -286.065 355.381 -284.477 356.881C-283.442 357.86 -282.595 359.162 -282.595 359.775C-282.595 360.387 -282.313 361.572 -281.967 362.406C-281.606 363.28 -281.401 365.926 -281.483 368.641C-281.563 371.235 -281.501 373.358 -281.346 373.358C-281.191 373.358 -280.338 372.63 -279.451 371.74C-278.27 370.557 -277.331 370.123 -275.945 370.123C-274.905 370.123 -273.904 370.366 -273.721 370.662C-272.711 372.3 -272.315 370.809 -272.474 365.968C-272.632 361.137 -272.552 360.641 -271.435 359.523C-270.498 358.586 -270.217 357.668 -270.187 355.458C-270.138 351.738 -269.87 351.189 -267.047 349.028C-264.219 346.863 -263.028 344.042 -263.425 340.445C-263.574 339.094 -263.493 337.661 -263.246 337.26C-262.992 336.847 -263.048 335.975 -263.376 335.254C-263.874 334.16 -263.73 333.731 -262.371 332.24C-260.89 330.615 -260.787 330.219 -260.8 326.189C-260.813 322.131 -260.885 321.866 -262.023 321.704C-262.689 321.609 -263.233 321.295 -263.233 321.006C-263.233 320.717 -262.931 320.52 -262.561 320.568C-261.032 320.767 -260.544 320.465 -260.536 319.315C-260.529 318.126 -260.515 318.128 -259.834 319.45C-259.429 320.236 -258.761 320.732 -258.229 320.639C-257.728 320.552 -257.317 320.717 -257.317 321.006C-257.317 321.295 -257.862 321.609 -258.528 321.704C-259.684 321.868 -259.732 322.078 -259.623 326.408C-259.519 330.52 -259.374 331.081 -258.053 332.462C-256.8 333.773 -256.68 334.166 -257.191 335.289C-257.642 336.282 -257.615 336.824 -257.075 337.563C-256.573 338.253 -256.527 338.789 -256.917 339.416C-258.134 341.37 -255.921 348.097 -253.791 348.916C-251.54 349.782 -248.863 344.393 -249.442 340.161C-249.608 338.945 -249.5 337.706 -249.202 337.407C-248.839 337.043 -248.876 336.39 -249.317 335.421C-249.911 334.114 -249.82 333.815 -248.352 332.24C-246.816 330.593 -246.733 330.273 -246.78 326.189C-246.827 322.144 -246.905 321.865 -248.04 321.704C-249.686 321.469 -249.579 320.528 -247.906 320.528C-246.88 320.528 -246.553 320.241 -246.527 319.315L-246.493 318.102L-246.007 319.315C-245.726 320.015 -245.058 320.528 -244.427 320.528C-242.941 320.528 -243.037 321.489 -244.544 321.704C-245.47 321.835 -245.794 322.285 -245.922 323.616C-246.014 324.573 -245.866 325.758 -245.592 326.248C-245.278 326.81 -245.308 327.707 -245.673 328.676C-246.194 330.058 -246.077 330.395 -244.517 332.007C-243.034 333.541 -242.834 334.058 -243.137 335.575C-243.379 336.79 -243.265 337.488 -242.775 337.792C-242.186 338.157 -242.183 338.386 -242.759 339.08C-243.25 339.673 -243.344 340.688 -243.075 342.484C-242.553 345.974 -241.461 347.893 -239.254 349.199C-236.821 350.637 -236.343 351.638 -236.343 355.288C-236.343 357.706 -236.1 358.555 -235.133 359.524C-233.98 360.678 -233.93 361.074 -234.088 367.947C-234.231 374.151 -234.146 375.069 -233.485 374.519C-232.86 373.999 -232.604 374.159 -232.12 375.371C-231.793 376.191 -231.536 377.832 -231.551 379.018C-231.613 384.136 -231.581 384.235 -228.697 387.585C-227.138 389.396 -225.699 390.952 -225.499 391.043C-225.3 391.134 -225.273 393.021 -225.44 395.238C-225.692 398.57 -225.593 399.382 -224.871 399.925C-224.175 400.447 -223.967 401.783 -223.85 406.467C-223.748 410.588 -223.502 412.42 -223.032 412.577C-222.513 412.749 -222.36 410.826 -222.36 404.13L-222.36 395.46L-220.233 395.46L-218.106 395.46L-217.947 391.821L-217.788 388.182L-215.771 388.015L-213.754 387.848L-213.754 384.683C-213.754 381.812 -213.642 381.503 -212.544 381.347C-211.275 381.166 -211.235 380.859 -211.719 375.02C-211.855 373.382 -211.694 373.128 -210.259 372.72C-209.371 372.468 -206.145 372.296 -203.09 372.338C-197.569 372.415 -197.531 372.407 -196.783 370.962C-196.235 369.903 -196.016 367.101 -195.978 360.651L-195.926 351.795L-193.642 351.795C-191.621 351.795 -191.145 351.538 -189.514 349.567C-188.5 348.341 -186.892 347.007 -185.94 346.602C-184.43 345.959 -183.97 345.98 -182.317 346.77C-181.275 347.268 -180.269 347.521 -180.081 347.332C-179.892 347.143 -179.575 345.414 -179.377 343.491C-178.976 339.611 -177.971 338.038 -175.553 337.505C-173.784 337.116 -171.038 338.349 -170.207 339.905C-169.903 340.476 -169.65 342.11 -169.645 343.538C-169.633 347.337 -169.105 347.934 -166.751 346.808C-164.216 345.597 -162.366 346.281 -159.776 349.387C-157.983 351.537 -157.526 351.795 -155.509 351.794L-153.25 351.793L-153.419 360.594C-153.563 368.062 -153.461 369.5 -152.747 370.094C-152.284 370.479 -151.905 371.129 -151.905 371.537C-151.905 372.125 -150.621 372.28 -145.755 372.28C-142.373 372.28 -138.958 372.527 -138.166 372.828C-136.887 373.316 -136.768 373.57 -137.099 375.119C-137.303 376.078 -137.512 377.832 -137.562 379.018C-137.641 380.877 -137.486 381.198 -136.443 381.347C-135.343 381.503 -135.233 381.811 -135.233 384.716L-135.233 387.913L-133.351 387.913L-131.468 387.913L-131.468 391.687L-131.468 395.46L-129.048 395.46L-126.628 395.46L-126.62 406.646C-126.614 412.798 -126.402 418.163 -126.146 418.569C-125.774 419.157 -125.01 418.913 -122.36 417.356C-119.408 415.622 -118.627 415.406 -115.305 415.406C-112.309 415.406 -111.569 415.242 -111.569 414.58C-111.569 414.126 -111.206 413.615 -110.762 413.445C-110.103 413.191 -109.956 411.868 -109.956 406.209C-109.956 401.938 -110.205 398.736 -110.607 397.852C-111.149 396.659 -111.117 396.317 -110.418 395.805C-109.846 395.385 -109.712 394.846 -109.998 394.112C-110.764 392.145 -110.543 391.687 -108.832 391.687L-107.17 391.687L-107.336 388.048C-107.427 386.046 -107.342 384.152 -107.146 383.837C-106.951 383.523 -106.741 381.522 -106.678 379.39C-106.616 377.258 -106.371 375.514 -106.134 375.514C-105.502 375.514 -104.997 378.767 -105.204 381.5C-105.361 383.57 -105.248 383.87 -104.308 383.87C-103.569 383.87 -103.175 383.449 -103.049 382.522C-102.948 381.781 -102.568 380.811 -102.204 380.366C-100.317 378.061 -100.225 375.89 -100.397 337.779C-100.543 305.731 -100.69 299.845 -101.418 297.079C-101.885 295.3 -102.243 292.762 -102.212 291.439C-102.16 289.144 -102.084 289.034 -100.544 289.014C-99.0095 288.993 -98.9389 288.893 -99.1067 286.971C-99.2038 285.859 -99.0723 284.949 -98.8143 284.949C-98.5564 284.949 -98.3854 282.463 -98.4344 279.424C-98.5003 275.339 -98.7723 273.406 -99.4778 272.011C-100.792 269.414 -101.886 268.238 -102.99 268.238C-103.922 268.238 -104.577 267.218 -104.577 265.768C-104.577 264.711 -102.998 264.81 -101.718 265.947C-100.83 266.735 -100.611 266.762 -100.386 266.112C-100.237 265.684 -99.5576 264.775 -98.8752 264.091C-97.3821 262.594 -95.085 262.479 -92.8103 263.788C-91.2381 264.692 -91.1454 264.689 -90.4243 263.7C-89.9611 263.066 -89.3353 262.802 -88.7894 263.012C-87.7023 263.43 -87.62 265.467 -88.674 265.872C-89.097 266.035 -89.6895 266.876 -89.9906 267.742C-90.2916 268.608 -90.7926 269.316 -91.1038 269.316C-91.4149 269.316 -91.6696 269.817 -91.6696 270.43C-91.6696 271.043 -92.2747 272.339 -93.0142 273.311C-94.079 274.71 -94.3587 275.707 -94.3587 278.101C-94.3587 279.764 -94.6425 281.749 -94.9895 282.513C-95.472 283.574 -95.472 284.049 -94.9895 284.532C-94.6425 284.88 -94.3587 286.104 -94.3587 287.252C-94.3587 289.211 -94.2683 289.328 -92.8797 289.166C-91.5082 289.005 -91.3875 289.149 -91.2194 291.148C-91.0321 293.375 -91.9299 298.524 -92.7927 300.171C-93.0742 300.708 -93.2803 316.672 -93.2766 337.637C-93.2696 376.508 -93.2664 376.561 -90.634 381.848C-90.0065 383.108 -89.2568 384.139 -88.9679 384.139C-88.4985 384.139 -88.1493 380.749 -88.4191 378.811C-88.5899 377.584 -87.923 375.514 -87.3568 375.514C-87.0599 375.514 -86.8292 377.242 -86.8292 379.467C-86.8292 381.642 -86.6477 383.603 -86.4259 383.826C-86.204 384.048 -86.0225 385.847 -86.0225 387.824L-86.0225 391.417L-84.2313 391.589C-82.7946 391.727 -82.514 391.94 -82.8133 392.667C-83.6534 394.707 -83.7214 395.592 -83.0688 395.996C-82.5315 396.329 -82.5147 396.806 -82.9918 398.178C-83.3276 399.143 -83.6023 402.904 -83.6023 406.534C-83.6023 411.903 -83.4519 413.192 -82.7956 413.444C-82.3519 413.615 -81.9888 414.126 -81.9888 414.58C-81.9888 415.242 -81.2487 415.406 -78.2477 415.406C-75.0576 415.406 -74.1037 415.644 -71.7703 417.023C-70.2652 417.912 -68.8243 418.64 -68.5682 418.64C-68.3122 418.64 -67.823 416.881 -67.4812 414.732C-66.3242 407.455 -62.755 394.099 -59.9475 386.54C-48.0172 354.419 -29.7351 331.821 -5.07569 318.713C25.8868 302.256 69.5244 302.009 101.424 318.11C106.732 320.79 116.324 327.399 121.989 332.28C130.8 339.871 141.257 353.244 147.823 365.317C154.834 378.21 161.518 396.822 163.841 409.92C164.454 413.382 165.119 416.385 165.317 416.593C165.515 416.801 165.677 411.746 165.677 405.359L165.677 393.748L171.223 390.905C174.273 389.341 177.005 387.825 177.294 387.536C177.627 387.202 177.818 371.514 177.816 344.739C177.81 295.133 178.07 288.869 180.395 282.106C186.189 265.256 198.19 251.795 216.008 242.162C218.547 240.789 220.786 239.828 220.983 240.026C221.18 240.224 221.342 241.591 221.342 243.065L221.342 245.745L224.243 245.403L227.144 245.061L227.86 248.429C228.42 251.062 228.638 264.305 228.858 309.208L229.14 366.619L233.981 366.935C237.746 367.181 239.447 367.572 241.639 368.694L244.457 370.136L244.597 394.253L244.737 418.371L246.216 418.541L247.695 418.712L247.695 408.541C247.695 402.665 247.916 398.149 248.219 397.846C248.507 397.557 248.809 393.446 248.891 388.709L249.04 380.096L250.59 380.07C251.632 380.053 252.543 379.539 253.366 378.504L254.592 376.964L264.795 377.273C270.742 377.453 275.204 377.375 275.492 377.086C275.793 376.784 276.701 377.117 277.811 377.939C278.891 378.737 280.361 379.288 281.413 379.288L283.191 379.288L283.191 397.886L283.191 416.484L290.183 416.484L297.174 416.484L297.184 414.193C297.189 412.933 297.249 400.258 297.318 386.026C297.387 371.795 297.252 359.769 297.019 359.303C296.712 358.689 296.971 358.284 297.96 357.832C298.711 357.489 299.326 356.869 299.326 356.455C299.326 356.04 299.689 355.398 300.132 355.029C300.678 354.575 300.939 353.356 300.939 351.255C300.939 348.295 301.016 348.12 302.601 347.462C304.023 346.871 304.23 346.545 304.032 345.196C303.855 343.987 304.094 343.427 305.059 342.794C305.751 342.339 306.317 341.51 306.317 340.951C306.317 340.179 306.709 339.935 307.948 339.935C309.764 339.935 310.568 338.745 309.567 337.537C309.077 336.945 309.085 336.484 309.601 335.522C309.969 334.836 310.564 333.304 310.923 332.119L311.577 329.962L311.933 331.579C312.129 332.469 312.687 334.002 313.173 334.987C313.893 336.445 313.935 336.975 313.396 337.839C312.553 339.192 313.015 339.935 314.699 339.935C315.618 339.935 316.181 340.348 316.536 341.283C316.817 342.024 317.412 342.631 317.857 342.631C318.605 342.631 319.42 344.457 319.195 345.63C318.96 346.853 319.314 347.388 320.57 347.704C321.797 348.012 321.914 348.297 321.914 350.959C321.914 353.966 323.511 357.463 325.05 357.826C325.629 357.962 325.753 361.451 325.703 376.188L325.64 394.382L328.349 394.382L331.057 394.382L331.057 391.108L331.057 387.835L334.072 387.975C336.439 388.085 337.196 387.919 337.594 387.205C337.974 386.525 338.843 386.296 341.034 386.296L343.965 386.296L343.965 384.409L343.965 382.522L348.23 382.522C352.108 382.522 352.511 382.622 352.667 383.622C352.762 384.226 353.02 384.712 353.242 384.7C353.464 384.688 354.504 384.678 355.553 384.678L357.46 384.678L357.382 371.362C357.312 359.511 357.399 358.012 358.177 357.738C359.591 357.241 360.637 354.579 360.637 351.477C360.637 348.812 360.762 348.523 362.251 347.752C363.577 347.064 363.864 346.58 363.864 345.029C363.864 343.513 364.128 343.042 365.209 342.63C366.032 342.317 366.553 341.695 366.553 341.026C366.553 340.178 366.905 339.935 368.135 339.935C370.056 339.935 370.572 339.25 369.702 337.853C369.171 337.002 369.218 336.548 369.953 335.425C370.449 334.665 370.859 333.489 370.864 332.811C370.869 332.134 371.107 331.215 371.394 330.771C371.807 330.129 371.917 330.241 371.927 331.31C371.933 332.051 372.3 333.352 372.742 334.201C373.697 336.038 373.765 337.343 372.946 338.163C372.044 339.067 372.875 339.935 374.642 339.935C375.86 339.935 376.288 340.231 376.543 341.252C376.744 342.053 377.327 342.633 378.033 342.734C378.968 342.868 379.223 343.32 379.352 345.074C379.472 346.709 379.805 347.377 380.696 347.769C381.653 348.19 381.933 348.86 382.15 351.256C382.437 354.425 383.745 357.395 385.078 357.908C385.769 358.174 385.917 360.104 386.039 370.453L386.184 382.685L389.249 382.776L392.315 382.867L392.476 380.943L392.638 379.018L396.938 378.858C402.727 378.643 403.663 378.92 403.663 380.849C403.663 382.924 404.472 383.457 407.965 383.681L410.923 383.87L411.075 377.859L411.227 371.848L413.101 371.902C414.461 371.94 415.202 371.629 415.803 370.77C416.776 369.377 417.782 369.257 418.744 370.42C419.192 370.961 420.117 371.199 421.365 371.094C423.219 370.938 423.3 370.844 423.459 368.641L423.624 366.35L428.299 366.356C430.87 366.361 433.872 366.51 434.969 366.692L436.963 367.023L437.12 370.836C437.268 374.443 437.364 374.699 438.89 375.557C439.777 376.056 442.105 376.602 444.063 376.771L447.622 377.078L448.456 374.948C449.114 373.271 449.572 372.819 450.616 372.819C451.489 372.819 452.037 372.451 452.222 371.741C452.377 371.148 452.889 370.662 453.361 370.662C453.999 370.662 454.218 370.124 454.218 368.55C454.218 367.389 454.365 366.054 454.544 365.585C454.951 364.523 457.226 364.461 457.624 365.502C457.985 366.444 463.054 366.334 464.022 365.364C464.368 365.017 465.597 364.733 466.752 364.733C468.389 364.733 469.108 364.412 470.006 363.282C470.64 362.484 471.29 361.332 471.45 360.721C471.859 359.162 474.105 358.908 474.488 360.377C474.928 362.064 476.806 361.848 476.806 360.111L476.806 358.724L481.243 358.987C485.396 359.233 488.326 359.586 491.193 360.187C492.307 360.42 492.403 360.737 492.403 364.172C492.403 366.224 492.602 368.027 492.845 368.177C493.088 368.328 496.173 368.617 499.702 368.82C503.231 369.023 506.541 369.408 507.059 369.676C507.941 370.131 508 372.483 508 407.473L508 420M4.25713 418.371C4.51307 417.702 5.95153 417.562 12.5647 417.562C16.9636 417.562 24.9578 417.403 30.3296 417.207L40.0966 416.853L40.0966 415.387C40.0966 414.58 40.4441 413.631 40.8688 413.278C41.2935 412.925 41.8011 411.905 41.9968 411.012C42.2721 409.756 42.0818 409.099 41.1572 408.112L39.9617 406.837L41.3737 404.421C43.2205 401.263 43.183 400.068 41.2112 399.25C39.3529 398.478 37.6077 396.697 38.164 396.139C38.3792 395.924 39.4946 396.289 40.6426 396.951C43.0161 398.32 43.3235 398.391 43.3235 397.563C43.3235 397.237 44.0496 396.291 44.937 395.46C45.8244 394.629 46.5504 393.561 46.5504 393.087C46.5504 392.092 45.9431 391.972 45.113 392.804C44.3558 393.563 41.0488 393.225 40.7655 392.36C40.6441 391.99 40.9196 391.686 41.3776 391.686C41.8357 391.686 43.0374 390.959 44.0481 390.069C46.107 388.257 48.6417 387.93 50.0079 389.299C51.061 390.355 51.0753 391.186 50.0634 392.527C49.0489 393.871 49.045 394.694 50.0472 395.864C53.8308 400.283 54.6177 401.368 54.6177 402.164C54.6177 402.667 54.8793 403.568 55.1991 404.167C56.1337 405.917 55.1705 406.112 53.8387 404.441C52.128 402.296 51.8091 403.538 52.803 408.477C53.3399 411.144 53.943 412.683 54.6471 413.18C55.2226 413.587 55.6933 414.477 55.6933 415.157C55.6933 416.749 55.8443 416.786 61.5645 416.581C66.0458 416.421 66.3965 416.326 66.5517 415.234C66.6645 414.439 67.2854 413.891 68.4665 413.542C70.4417 412.959 70.5442 412.555 69.4077 409.829C68.249 407.049 68.3952 405.975 70.2145 403.898C71.4004 402.544 71.8324 401.504 71.845 399.971L71.8622 397.886L72.9786 399.386C74.2799 401.135 75.3068 400.688 75.8676 398.128L76.2116 396.559L81.146 396.858C90.4331 397.42 91.025 397.555 92.7321 399.504C93.5902 400.484 94.3807 401.55 94.4889 401.874C94.6998 402.505 101.911 404.461 110.748 406.284C117.549 407.687 135.291 408.441 135.291 407.327C135.291 405.343 132.178 393.121 129.911 386.209C124.64 370.134 117.546 358.208 106.827 347.404C93.2606 333.731 78.6591 326.928 58.4601 324.869C29.4176 321.909 3.84103 331.219 -13.2877 350.986C-25.0188 364.524 -33.7081 383.896 -37.6103 405.212C-38.6703 411.003 -39.4925 418.217 -39.1547 418.765C-39.0143 418.993 -29.2588 419.179 -17.4759 419.179C1.07111 419.179 3.98913 419.071 4.25713 418.371ZM-161.857 408.667C-161.857 400.182 -161.954 399.293 -163.135 396.669C-165.364 391.717 -168.922 389.54 -174.791 389.533C-178.273 389.528 -182.378 391.538 -184.097 394.086C-186.462 397.59 -186.815 399.52 -186.84 409.082L-186.864 418.121L-174.359 417.976L-161.855 417.832L-161.855 408.667L-161.857 408.667ZM-93.014 408.588C-93.014 402.904 -93.1492 401.889 -94.0385 400.906C-95.2672 399.547 -97.4003 399.438 -98.7531 400.665C-99.6091 401.441 -99.7367 402.458 -99.7367 408.507L-99.7367 415.457L-96.3753 415.297L-93.014 415.136L-93.014 408.588Z" stroke="url(#paint3_linear)" stroke-width="5"/>
<defs>
<linearGradient id="paint0_linear" x1="1.05931e-05" y1="50.1099" x2="1920" y2="50.1101" gradientUnits="userSpaceOnUse">
<stop stop-color="#1A2D57"/>
<stop offset="1" stop-color="#3667A1"/>
</linearGradient>
<linearGradient id="paint1_linear" x1="508" y1="330.198" x2="1411" y2="330.198" gradientUnits="userSpaceOnUse">
<stop stop-color="#1A2D57"/>
<stop offset="1" stop-color="#3667A1"/>
</linearGradient>
<linearGradient id="paint2_linear" x1="1412" y1="330.198" x2="2315" y2="330.198" gradientUnits="userSpaceOnUse">
<stop stop-color="#3667A1"/>
<stop offset="1" stop-color="#1A2D57"/>
</linearGradient>
<linearGradient id="paint3_linear" x1="-395" y1="330.198" x2="508" y2="330.198" gradientUnits="userSpaceOnUse">
<stop stop-color="#3667A1"/>
<stop offset="1" stop-color="#1A2D57"/>
</linearGradient>
</defs>
</svg>
