<svg width="132" height="132" viewBox="0 0 132 132" fill="none" xmlns="http://www.w3.org/2000/svg">
<path d="M126.844 61.015C129.692 61.015 132 58.7068 132 55.8588V45.7185C132 43.9944 131.139 42.3841 129.704 41.4284L68.8606 0.866338C67.1284 -0.288779 64.8716 -0.288779 63.1404 0.866338L2.29616 41.4284C0.862067 42.3841 0 43.9944 0 45.7185V55.8588C0 58.7068 2.30825 61.015 5.15629 61.015H20.2817V101.406H5.15629C2.30825 101.406 0 103.714 0 106.561V126.843C0 129.691 2.30825 131.999 5.15629 131.999C8.00433 131.999 10.3126 129.691 10.3126 126.843V111.717H62.7275L56.3174 124.536C55.0444 127.084 56.0767 130.181 58.6236 131.455C61.1725 132.729 64.2693 131.693 65.5413 129.149L74.2566 111.718H121.687V126.843C121.687 129.691 123.996 131.999 126.844 131.999C129.692 131.999 132 129.691 132 126.843V106.561C132 103.714 129.692 101.406 126.844 101.406H111.718V61.015H126.844ZM73.4983 101.406L61.4243 86.7921L80.143 69.8188C82.8863 67.3314 82.1864 62.8348 78.8086 61.303L61.6177 53.5092L70.4669 38.1523C71.8889 35.686 71.042 32.5328 68.5746 31.1109C66.1062 29.6889 62.9541 30.5358 61.5321 33.0042L49.8448 53.2847C48.3241 55.9232 49.4128 59.2989 52.1833 60.5548L67.3994 67.4532L50.8489 82.4607C48.8075 84.3117 48.5829 87.4407 50.3373 89.5646L60.1211 101.406H30.5943V55.8588C30.5943 53.0117 28.2861 50.7025 25.438 50.7025H10.3126V48.4779L66.0005 11.353L121.687 48.4779V50.7025H106.563C103.715 50.7025 101.407 53.0117 101.407 55.8588V101.406H73.4983Z" fill="url(#paint0_linear)"/>
<defs>
<linearGradient id="paint0_linear" x1="7.28274e-07" y1="66.145" x2="132" y2="66.145" gradientUnits="userSpaceOnUse">
<stop stop-color="#1A2D57"/>
<stop offset="1" stop-color="#3667A1"/>
</linearGradient>
</defs>
</svg>
