<svg width="50" height="48" viewBox="0 0 50 48" fill="none" xmlns="http://www.w3.org/2000/svg">
<path d="M31.3477 22.5352V14.5273C29.8134 14.5273 20.1968 14.5273 18.6523 14.5273V22.5352H31.3477Z" fill="#3667A1"/>
<path d="M23.5352 33.4727V25.4648C21.492 25.4648 10.2645 25.4648 7.91016 25.4648V33.4727H23.5352Z" fill="#3667A1"/>
<path d="M31.3477 36.4023C29.8134 36.4023 20.1968 36.4023 18.6523 36.4023V47.3398H31.3477C31.3477 45.0614 31.3477 38.7038 31.3477 36.4023Z" fill="#3667A1"/>
<path d="M15.7227 22.5352V14.5273C15.0139 14.5273 0.713184 14.5273 0 14.5273V22.5352H15.7227Z" fill="#3667A1"/>
<path d="M50 22.5352V14.5273H34.2773V22.5352H50Z" fill="#3667A1"/>
<path d="M42.0898 33.4727V25.4648C39.6062 25.4648 28.4547 25.4648 26.4648 25.4648V33.4727H42.0898Z" fill="#3667A1"/>
<path d="M34.2773 36.4023V47.3398H48.5352C49.3441 47.3398 50 46.684 50 45.875V36.4023C48.0037 36.4023 35.8461 36.4023 34.2773 36.4023Z" fill="#3667A1"/>
<path d="M15.7227 36.4023C13.7271 36.4023 1.229 36.4023 0 36.4023V45.875C0 46.684 0.655859 47.3398 1.46484 47.3398H15.7227C15.7227 45.0614 15.7227 38.7038 15.7227 36.4023Z" fill="#3667A1"/>
<path d="M26.4648 11.5977V2.125C26.4648 1.31602 25.809 0.660156 25 0.660156H9.375C8.56602 0.660156 7.91016 1.31602 7.91016 2.125V11.5977H26.4648Z" fill="#3667A1"/>
</svg>
