<svg width="203" height="59" viewBox="0 0 203 59" fill="none" xmlns="http://www.w3.org/2000/svg">
<path d="M49.4961 23.8534L87.6149 33.8282V24.5795L49.4961 0.104492V23.8534Z" fill="#1A2D57"/>
<path d="M49.4974 23.8534V0.104492L18.9238 14.7526V24.2756L34.134 19.8334L49.4974 23.8534Z" fill="#3667A1"/>
<path d="M34.4375 37.843L80.4672 43.5329V37.0525L34.4388 23.9102L34.4375 37.843Z" fill="#1A2D57"/>
<path d="M34.4376 37.843V23.9102L0 32.6722V45.5093L34.4376 37.843Z" fill="#3667A1"/>
<path d="M92.788 50.073V58.652L57.8027 58.8956V45.5098L92.788 50.073Z" fill="#1A2D57"/>
<path d="M57.8032 45.5098L17.4023 48.7953V58.7738L57.8032 58.8954V45.5098Z" fill="#3667A1"/>
<path d="M110.347 30.6628V39.8179H126.287V46.2512H110.347V58.8704H102.377V24.2295H128.402V30.6628H110.347Z" fill="#1A2D57"/>
<path d="M159.085 40.8571C161.053 41.484 162.594 42.5397 163.71 44.0243C164.825 45.4759 165.382 47.274 165.382 49.4184C165.382 52.4536 164.201 54.796 161.84 56.4456C159.511 58.0621 156.1 58.8704 151.607 58.8704H133.798V24.2295H150.623C154.821 24.2295 158.035 25.0378 160.266 26.6544C162.529 28.2709 163.66 30.4649 163.66 33.2361C163.66 34.9187 163.25 36.4198 162.43 37.7395C161.643 39.0591 160.528 40.0983 159.085 40.8571ZM141.718 30.2669V38.4323H149.639C151.607 38.4323 153.099 38.0859 154.116 37.393C155.133 36.7002 155.641 35.6775 155.641 34.3248C155.641 32.9722 155.133 31.966 154.116 31.3061C153.099 30.6133 151.607 30.2669 149.639 30.2669H141.718ZM151.017 52.833C153.116 52.833 154.69 52.4866 155.74 51.7938C156.822 51.101 157.363 50.0287 157.363 48.5771C157.363 45.7069 155.248 44.2717 151.017 44.2717H141.718V52.833H151.017Z" fill="#1A2D57"/>
<path d="M203.001 24.2295V58.8704H195.031V44.6676H179.386V58.8704H171.416V24.2295H179.386V37.8879H195.031V24.2295H203.001Z" fill="#1A2D57"/>
</svg>