<svg width="203" height="59" viewBox="0 0 203 59" fill="none" xmlns="http://www.w3.org/2000/svg">
<path d="M49.4961 23.749L87.6149 33.7237V24.475L49.4961 0V23.749Z" fill="#DEDEDE"/>
<path d="M49.4974 23.749V0L18.9238 14.6481V24.1711L34.134 19.7289L49.4974 23.749Z" fill="white"/>
<path d="M34.4375 37.7384L80.4672 43.4283V36.9479L34.4388 23.8055L34.4375 37.7384Z" fill="#DEDEDE"/>
<path d="M34.4376 37.7384V23.8055L0 32.5675V45.4047L34.4376 37.7384Z" fill="white"/>
<path d="M92.788 49.9687V58.5477L57.8027 58.7913V45.4055L92.788 49.9687Z" fill="#DEDEDE"/>
<path d="M57.8032 45.4055L17.4023 48.691V58.6695L57.8032 58.7912V45.4055Z" fill="white"/>
<path d="M110.347 30.5583V39.7134H126.287V46.1467H110.347V58.7659H102.377V24.125H128.402V30.5583H110.347Z" fill="white"/>
<path d="M159.085 40.7526C161.053 41.3795 162.594 42.4352 163.71 43.9198C164.825 45.3714 165.382 47.1695 165.382 49.3139C165.382 52.3491 164.201 54.6915 161.84 56.3411C159.511 57.9576 156.1 58.7659 151.607 58.7659H133.798V24.125H150.623C154.821 24.125 158.035 24.9333 160.266 26.5499C162.529 28.1664 163.66 30.3604 163.66 33.1316C163.66 34.8142 163.25 36.3153 162.43 37.635C161.643 38.9546 160.528 39.9938 159.085 40.7526ZM141.718 30.1624V38.3278H149.639C151.607 38.3278 153.099 37.9814 154.116 37.2886C155.133 36.5957 155.641 35.573 155.641 34.2204C155.641 32.8677 155.133 31.8615 154.116 31.2016C153.099 30.5088 151.607 30.1624 149.639 30.1624H141.718ZM151.017 52.7285C153.116 52.7285 154.69 52.3821 155.74 51.6893C156.822 50.9965 157.363 49.9242 157.363 48.4726C157.363 45.6024 155.248 44.1673 151.017 44.1673H141.718V52.7285H151.017Z" fill="white"/>
<path d="M203.001 24.125V58.7659H195.031V44.5631H179.386V58.7659H171.416V24.125H179.386V37.7834H195.031V24.125H203.001Z" fill="white"/>
</svg>
