<svg width="31" height="45" viewBox="0 0 31 45" fill="none" xmlns="http://www.w3.org/2000/svg">
<path d="M18.625 1.08173C18.2382 0.412319 17.5238 0 16.7507 0C15.084 0 14.0426 1.80449 14.8764 3.24759L23.1095 17.4972C24.898 20.5926 24.898 24.4074 23.1095 27.5028L14.8764 41.7524C14.0426 43.1955 15.084 45 16.7507 45C17.5238 45 18.2382 44.5877 18.625 43.9183L28.1095 27.5028C29.898 24.4074 29.898 20.5926 28.1095 17.4972L18.625 1.08173Z" fill="url(#paint0_linear)"/>
<path d="M5.625 1.08173C5.23823 0.412319 4.52381 0 3.75069 0C2.08403 0 1.04259 1.80449 1.87639 3.24759L10.1095 17.4972C11.898 20.5926 11.898 24.4074 10.1095 27.5028L1.87639 41.7524C1.04259 43.1955 2.08403 45 3.75069 45C4.52381 45 5.23823 44.5877 5.625 43.9183L15.1095 27.5028C16.898 24.4074 16.898 20.5926 15.1095 17.4972L5.625 1.08173Z" fill="url(#paint1_linear)"/>
<defs>
<linearGradient id="paint0_linear" x1="31" y1="22.5494" x2="13" y2="22.5494" gradientUnits="userSpaceOnUse">
<stop stop-color="#1A2D57"/>
<stop offset="1" stop-color="#3667A1"/>
</linearGradient>
<linearGradient id="paint1_linear" x1="18" y1="22.5494" x2="-9.93101e-08" y2="22.5494" gradientUnits="userSpaceOnUse">
<stop stop-color="#1A2D57"/>
<stop offset="1" stop-color="#3667A1"/>
</linearGradient>
</defs>
</svg>
