<svg width="31" height="45" viewBox="0 0 31 45" fill="none" xmlns="http://www.w3.org/2000/svg">
<path d="M12.375 1.08173C12.7618 0.412319 13.4762 0 14.2493 0C15.916 0 16.9574 1.80449 16.1236 3.24759L7.89049 17.4972C6.10203 20.5926 6.10203 24.4074 7.89049 27.5028L16.1236 41.7524C16.9574 43.1955 15.916 45 14.2493 45C13.4762 45 12.7618 44.5877 12.375 43.9183L2.89049 27.5028C1.10202 24.4074 1.10203 20.5926 2.89049 17.4972L12.375 1.08173Z" fill="url(#paint0_linear)"/>
<path d="M25.375 1.08173C25.7618 0.412319 26.4762 0 27.2493 0C28.916 0 29.9574 1.80449 29.1236 3.24759L20.8905 17.4972C19.102 20.5926 19.102 24.4074 20.8905 27.5028L29.1236 41.7524C29.9574 43.1955 28.916 45 27.2493 45C26.4762 45 25.7618 44.5877 25.375 43.9183L15.8905 27.5028C14.102 24.4074 14.102 20.5926 15.8905 17.4972L25.375 1.08173Z" fill="url(#paint1_linear)"/>
<defs>
<linearGradient id="paint0_linear" x1="9.93101e-08" y1="22.5494" x2="18" y2="22.5494" gradientUnits="userSpaceOnUse">
<stop stop-color="#1A2D57"/>
<stop offset="1" stop-color="#3667A1"/>
</linearGradient>
<linearGradient id="paint1_linear" x1="13" y1="22.5494" x2="31" y2="22.5494" gradientUnits="userSpaceOnUse">
<stop stop-color="#1A2D57"/>
<stop offset="1" stop-color="#3667A1"/>
</linearGradient>
</defs>
</svg>
